<svg xmlns="http://www.w3.org/2000/svg" viewBox="0 0 652.3 346.1">
  <g data-name="Layer 2">
    <g data-name="Layer 1">
      <path d="M479.3 0a173.12 173.12 0 0 0-146.5 80.8l-78.3 142.5a95.36 95.36 0 0 1-81.5 45.4c-2.2 0-4.4-.1-6.5-.2A95.73 95.73 0 1 1 255.4 124l1.2 2L297 52.4l-.7-.7A174.71 174.71 0 0 0 173 0C77.6 0 0 77.6 0 173s77.6 173 173 173a172.91 172.91 0 0 0 147.9-83.1l78.1-142a95.82 95.82 0 0 1 132.4-28.2c44.4 28.7 56.9 88 28.2 132.4a95.82 95.82 0 0 1-132.4 28.2 97.33 97.33 0 0 1-29.2-29.7l-1.2-2-40.3 73.3.7.7a172.55 172.55 0 0 0 122.1 50.5c95.4 0 173-77.6 173-173S574.7 0 479.3 0z" fill="#fff" data-name="Layer 1-2"/>
    </g>
  </g>
</svg>