<svg xmlns="http://www.w3.org/2000/svg" viewBox="0 0 1164.7 164.47"><defs><style>.cls-1{fill:#202837;}</style></defs><title>collabcave Logo</title><g id="Layer_2" data-name="Layer 2"><g id="Layer_1-2" data-name="Layer 1"><path class="cls-1" d="M179,35.21a64.17,64.17,0,0,0-50.69,24.53,65.63,65.63,0,0,0-4,5.67L95.05,118.63a35.57,35.57,0,0,1-30.42,17c-.83,0-1.65,0-2.44-.09A35.75,35.75,0,1,1,95.35,81.56l.45.75,15.13-27.52-.26-.27a64.62,64.62,0,1,0-46,110,64.32,64.32,0,0,0,25.51-5.24,64.56,64.56,0,0,0,29.72-25.82l29.18-53a35.75,35.75,0,1,1-.4,38.33l-.45-.73-15.06,27.39.26.27A64.63,64.63,0,1,0,179,35.21Z"/><rect class="cls-1" x="270.37" width="33.34" height="160.13"/><rect class="cls-1" x="336.61" width="33.34" height="160.13"/><path class="cls-1" d="M450,41.24c-20,0-32.68,3.73-45.63,9.43l8.34,25.45c10.75-4,19.74-6.36,32.47-6.36,16.67,0,25.22,7.67,25.22,21.49v2a83.54,83.54,0,0,0-28.73-4.83c-27.86,0-47.39,11.85-47.39,37.51v.44c0,23.25,18.21,36,40.37,36,16.23,0,27.42-5.93,35.53-14.92v12.72h32.25V91.91c0-15.79-3.95-28.73-12.72-37.51C481.39,46.07,468.23,41.24,450,41.24Zm20.84,77.43c0,12.07-10.53,20.62-26.1,20.62-10.75,0-18.21-5.26-18.21-14.25v-.44c0-10.53,8.77-16.24,23-16.24a51.72,51.72,0,0,1,21.28,4.39Z"/><path class="cls-1" d="M601.16,40.36c-17.33,0-28.52,8.12-36.63,19.09V0H531.19V160.13h33.34V144.78c7.9,9.43,18.86,17.55,36.63,17.55,27.86,0,53.53-21.5,53.53-60.77v-.43C654.69,61.86,628.58,40.36,601.16,40.36Zm20.18,61.2c0,19.75-13.16,32.47-28.73,32.47s-28.52-12.94-28.52-32.47v-.43c0-19.53,12.94-32.47,28.52-32.47s28.73,12.94,28.73,32.47Z"/><path class="cls-1" d="M736.29,134c-18.21,0-29.84-14.48-29.84-32.47v-.43c0-17.34,11.85-32,28.52-32,11.85,0,19.31,5,26.76,12.94l20.4-21.94c-11-12.28-24.78-19.74-46.94-19.74-36,0-61.64,27.64-61.64,61.2V102c0,33.56,25.88,60.77,61.2,60.77,23.47,0,36.63-9,48-21.5l-19.52-19.74C755.15,129.2,747.47,134,736.29,134Z"/><path class="cls-1" d="M853.21,41.24c-20,0-32.69,3.73-45.63,9.43l8.34,25.45c10.75-4,19.74-6.36,32.46-6.36,16.67,0,25.23,7.67,25.23,21.49v2a83.6,83.6,0,0,0-28.74-4.83c-27.86,0-47.38,11.85-47.38,37.51v.44c0,23.25,18.21,36,40.36,36,16.24,0,27.42-5.93,35.54-14.92v12.72h32.25V91.91c0-15.79-3.95-28.73-12.73-37.51C884.58,46.07,871.41,41.24,853.21,41.24Zm20.84,77.43c0,12.07-10.53,20.62-26.11,20.62-10.74,0-18.2-5.26-18.2-14.25v-.44c0-10.53,8.77-16.24,23-16.24a51.76,51.76,0,0,1,21.28,4.39Z"/><polygon class="cls-1" points="981.1 121.31 954.77 42.56 919.46 42.56 965.74 161.01 996.01 161.01 1042.3 42.56 1007.64 42.56 981.1 121.31"/><path class="cls-1" d="M1164.7,104.2c0-33.35-18-63.84-57.25-63.84-34.22,0-58.13,27.64-58.13,61.2V102c0,36,26.1,60.77,61.42,60.77,21.28,0,37.07-8.34,48-21.94l-19.08-16.89c-9.22,8.55-17.33,12.06-28.52,12.06-14.92,0-25.45-7.89-28.74-23h81.83C1164.48,109.9,1164.7,106.83,1164.7,104.2ZM1082,92.13c2.64-15.13,11.63-25,25.45-25,14,0,22.81,10.09,24.79,25Z"/></g></g></svg>