<svg xmlns="http://www.w3.org/2000/svg" width="19.175" height="19.177" viewBox="0 0 19.175 19.177"><g transform="translate(-28.521 -28.521)"><g transform="translate(28.521 28.521)"><path d="M147.749,129.276a1.187,1.187,0,0,0-1.685,0l-7.552,7.552-7.552-7.552a1.191,1.191,0,1,0-1.685,1.685l7.552,7.552-7.552,7.552a1.2,1.2,0,0,0,.838,2.038,1.162,1.162,0,0,0,.838-.353L138.5,140.2l7.552,7.552a1.2,1.2,0,0,0,.838.353,1.148,1.148,0,0,0,.838-.353,1.187,1.187,0,0,0,0-1.685l-7.534-7.552,7.552-7.552A1.187,1.187,0,0,0,147.749,129.276Z" transform="translate(-128.925 -128.925)" fill="#ED254E"/></g></g></svg>