<svg xmlns="http://www.w3.org/2000/svg" viewBox="0 0 24.071 22.309">
  <defs>
    <style>
      .cls-1 {
        fill: #4343f0;
      }
    </style>
  </defs>
  <g id="download" transform="translate(0 -17.25)">
    <g id="Group_55" data-name="Group 55" transform="translate(0 17.25)">
      <path id="Path_35" data-name="Path 35" class="cls-1" d="M23.381,228.252a.687.687,0,0,0-.69.69v6.273a3.1,3.1,0,0,1-3.091,3.091H4.47a3.1,3.1,0,0,1-3.091-3.091V228.84a.69.69,0,0,0-1.379,0v6.375a4.475,4.475,0,0,0,4.47,4.47H19.6a4.475,4.475,0,0,0,4.47-4.47v-6.273A.69.69,0,0,0,23.381,228.252Z" transform="translate(0 -217.376)"/>
      <path id="Path_36" data-name="Path 36" class="cls-1" d="M140.816,34.082a.694.694,0,0,0,.485.2.673.673,0,0,0,.485-.2L146.17,29.7a.69.69,0,1,0-.976-.976l-3.2,3.208V17.94a.69.69,0,1,0-1.379,0V31.932L137.4,28.724a.69.69,0,1,0-.976.976Z" transform="translate(-129.266 -17.25)"/>
    </g>
  </g>
</svg>
