<svg xmlns="http://www.w3.org/2000/svg" viewBox="0 0 24.521 22.56">
  <defs>
    <style>
      .cls-1 {
        fill: none;
      }

      .cls-2, .cls-3 {
        stroke: none;
      }

      .cls-3 {
        fill: #ed254e;
      }
    </style>
  </defs>
  <g id="favorite-heart-button" transform="translate(0 -20.4)">
    <g id="favorite" transform="translate(0 20.4)">
      <g id="Path_32" data-name="Path 32" class="cls-1" transform="translate(0 -20.4)">
        <path class="cls-2" d="M12.261,42.96l-1.716-1.716C4.169,35.6,0,31.8,0,27.143A6.648,6.648,0,0,1,6.743,20.4a7.368,7.368,0,0,1,5.517,2.575A7.368,7.368,0,0,1,17.778,20.4a6.648,6.648,0,0,1,6.743,6.743c0,4.659-4.169,8.46-10.544,14.1Z"/>
        <path class="cls-3" d="M 12.26065063476562 40.13117980957031 L 12.56293106079102 39.82889938354492 L 12.60618019104004 39.78563690185547 L 12.65199089050293 39.7451171875 C 15.94243049621582 36.83434677124023 18.4023609161377 34.61481857299805 20.094970703125 32.55548858642578 C 21.77299118041992 30.51388740539551 22.52130126953125 28.84472846984863 22.52130126953125 27.14335823059082 C 22.52130126953125 24.4391975402832 20.48210144042969 22.39999771118164 17.77794075012207 22.39999771118164 C 16.29074096679688 22.39999771118164 14.7616605758667 23.11524772644043 13.78743076324463 24.2666187286377 L 12.26065063476562 26.07099723815918 L 10.73387050628662 24.2666187286377 C 9.759640693664551 23.11524772644043 8.230560302734375 22.39999771118164 6.74336051940918 22.39999771118164 C 4.039200782775879 22.39999771118164 2.000000715255737 24.4391975402832 2.000000715255737 27.14335823059082 C 2.000000715255737 28.84472846984863 2.748310565948486 30.51388740539551 4.42633056640625 32.55548858642578 C 6.118940830230713 34.61481857299805 8.57887077331543 36.83434677124023 11.86931037902832 39.7451171875 L 11.91512107849121 39.78563690185547 L 11.95837020874023 39.82889938354492 L 12.26065063476562 40.13117980957031 M 12.26065063476562 42.95959854125977 L 10.54416084289551 41.24310684204102 C 4.168620586395264 35.60320663452148 6.347656267280399e-07 31.80240821838379 6.347656267280399e-07 27.14335823059082 C 6.347656267280399e-07 23.34255790710449 2.94256067276001 20.39999771118164 6.74336051940918 20.39999771118164 C 8.827671051025391 20.39999771118164 10.91198062896729 21.3808479309082 12.26065063476562 22.97473907470703 C 13.60932064056396 21.3808479309082 15.69363021850586 20.39999771118164 17.77794075012207 20.39999771118164 C 21.5787410736084 20.39999771118164 24.52130126953125 23.34255790710449 24.52130126953125 27.14335823059082 C 24.52130126953125 31.80240821838379 20.35268020629883 35.60320663452148 13.97714042663574 41.24310684204102 L 12.26065063476562 42.95959854125977 Z"/>
      </g>
    </g>
  </g>
</svg>
