<svg xmlns="http://www.w3.org/2000/svg" width="603.918" height="819.579" viewBox="0 0 603.918 819.579">
  <defs>
    <style>
      .cls-1 {
        fill: #4844eb;
      }

      .cls-2 {
        fill: #ff0058;
      }

      .cls-3 {
        fill: #fff;
      }

      .cls-4 {
        fill: #643af1;
      }

      .cls-5 {
        fill: #9381ff;
      }

      .cls-6 {
        fill: #6d63c6;
      }

      .cls-7 {
        fill: #b4acfc;
      }

      .cls-8 {
        fill: #e4e6fa;
      }
    </style>
  </defs>
  <g id="Gruppe_101" data-name="Gruppe 101" transform="translate(1962.348 -842.586)">
    <g id="Gruppe_94" data-name="Gruppe 94" transform="translate(-1905.374 930.836)">
      <g id="Gruppe_81" data-name="Gruppe 81" transform="translate(0 159.409)">
        <path id="Pfad_46" data-name="Pfad 46" class="cls-1" d="M-1697.338,1387c20.157-7.228,41.868-9.013,62.377-15.174s41.054-18.225,48.963-38.125c9.642-24.257-1.379-54.987,14.134-75.98,10.391-14.062,30.545-19.949,37.341-36.059,4.756-11.275,1.421-24.28,3.557-36.327,4.224-23.826,28.115-38.7,39.311-60.154,9.093-17.42,8.951-39.48-.884-56.494s-29.229-28.215-48.871-27.653-38.59,13.159-46.186,31.282c-10.3,24.585-.857,56.456-18.171,76.721-12.074,14.134-33.36,17.3-45.932,30.988-20.839,22.7-7.838,60.582-20.939,88.469-8.417,17.917-26.3,29.069-40.264,43.094a120.246,120.246,0,0,0-30.511,53.8c-3.95,14.827-10.335,49.221.984,61.4,6.331-6.873,9.587-16.773,17.271-23.712C-1717.183,1395.878-1707.412,1390.613-1697.338,1387Z" transform="translate(2031.938 -972.633)"/>
        <path id="Pfad_47" data-name="Pfad 47" class="cls-2" d="M-1678.225,1434.85c-15.574-6.108-33.216-6.755-49.275-11.758-29.408-9.16-52.135-33.761-58.174-62.973-4.479-21.667-.389-45.346-8.543-65.806-9.771-24.513-34.743-39.127-57.132-53.909s-45.173-34.169-46.789-60.805c-1.153-19.009,8.948-38.813,4.187-57.089-4.288-16.453-19.567-27.5-27.385-42.532-12.839-24.682-1.159-59.6,24.98-74.4s62.444-6.924,77,16.8c22.045,35.919-5.468,89.573,19.312,123.727,13.076,18.023,37.016,24.979,56.463,36.648a114.012,114.012,0,0,1,53.918,79.924c4.143,27.266-1.589,56.019,4.259,82.9,4.84,22.255,17.3,41.782,26.209,62.629,7.086,16.574,13.061,36.809,7.914,55.267C-1655.043,1450.081-1664.915,1440.071-1678.225,1434.85Z" transform="translate(1926.576 -998.081)"/>
        <g id="Gruppe_80" data-name="Gruppe 80" transform="translate(94.75 32.098)">
          <g id="Gruppe_78" data-name="Gruppe 78">
            <g id="Gruppe_76" data-name="Gruppe 76" transform="translate(7.409 93.765)">
              <path id="Pfad_48" data-name="Pfad 48" class="cls-3" d="M-1860.531,1077.745c-1.18,2.083-.241,5.4,1.008,7.279a1.688,1.688,0,0,0,2.031.787,1.645,1.645,0,0,0,1.072-1.9c-.315-1-.666-2-.926-3.025a11.714,11.714,0,0,0-.769-3.039A1.407,1.407,0,0,0-1860.531,1077.745Z" transform="translate(1863.243 -1077.105)"/>
              <path id="Pfad_49" data-name="Pfad 49" class="cls-3" d="M-1852.882,1087.4a8.067,8.067,0,0,0-2.312-2.547,1.4,1.4,0,0,0-2.083,1.449,8.1,8.1,0,0,0,1.647,3.041,11.07,11.07,0,0,0,2.375,2.448,1.272,1.272,0,0,0,1.906-1.327A11.21,11.21,0,0,0-1852.882,1087.4Z" transform="translate(1865.478 -1072.625)"/>
              <path id="Pfad_50" data-name="Pfad 50" class="cls-3" d="M-1860.657,1084.089a1.17,1.17,0,0,0-1.75,1.217,11.6,11.6,0,0,0,2.055,4.2,1.368,1.368,0,0,0,1.625.283,1.415,1.415,0,0,0,.706-1.491A5.956,5.956,0,0,0-1860.657,1084.089Z" transform="translate(1862.435 -1073.064)"/>
              <path id="Pfad_51" data-name="Pfad 51" class="cls-3" d="M-1854.641,1092.241a4.806,4.806,0,0,0-1.05-.892,3.914,3.914,0,0,0-.978-.255.441.441,0,0,0-.569.395,6.335,6.335,0,0,0-.1.82,3.978,3.978,0,0,0,.548,1.442,10.777,10.777,0,0,0,1.871,2.47,1.266,1.266,0,0,0,2.043-1.437A10.694,10.694,0,0,0-1854.641,1092.241Z" transform="translate(1865.454 -1068.825)"/>
              <path id="Pfad_52" data-name="Pfad 52" class="cls-3" d="M-1849.767,1093.487c-1.163-.828-2.383.618-1.9,1.747.8,1.886,2.137,4.174,4.249,4.74a1.172,1.172,0,0,0,1.508-1.046C-1846.022,1096.55-1847.937,1094.793-1849.767,1093.487Z" transform="translate(1868.753 -1067.54)"/>
              <path id="Pfad_53" data-name="Pfad 53" class="cls-3" d="M-1840.824,1100.512a11.316,11.316,0,0,0-2.007-1.516,7.621,7.621,0,0,0-1.054-.53c-.357-.129-.749-.134-1.1-.267a.458.458,0,0,0-.54.642c.178.339.232.741.412,1.083a7.512,7.512,0,0,0,.594.87,9.872,9.872,0,0,0,1.575,1.683,1.488,1.488,0,0,0,2.042.078A1.456,1.456,0,0,0-1840.824,1100.512Z" transform="translate(1872.429 -1064.619)"/>
            </g>
            <g id="Gruppe_77" data-name="Gruppe 77">
              <path id="Pfad_54" data-name="Pfad 54" class="cls-3" d="M-1861.156,1020.3c-.572-.8-2.677-3.155-3.682-1.484-.787,1.309.134,2.765.757,3.969a13.536,13.536,0,0,0,2.958,4.329,1.3,1.3,0,0,0,2.211-.8A9.891,9.891,0,0,0-1861.156,1020.3Z" transform="translate(1868.24 -1018.234)"/>
              <path id="Pfad_55" data-name="Pfad 55" class="cls-3" d="M-1860.937,1027.854c-.475.979-.053,2.126.162,3.136a22.215,22.215,0,0,1,.572,4.233c.024,1.666,2.544,2.333,3.017.545a7.862,7.862,0,0,0-.575-6.1C-1858.027,1029.209-1860.241,1026.414-1860.937,1027.854Z" transform="translate(1870.603 -1012.774)"/>
              <path id="Pfad_56" data-name="Pfad 56" class="cls-3" d="M-1858.106,1037.327a.778.778,0,0,0-.938.086,6.169,6.169,0,0,0-.924,2.5c-.285.927-.575,1.853-.847,2.784a1.5,1.5,0,0,0,2.688,1.25,6.315,6.315,0,0,0,1.064-3.509C-1857.077,1039.426-1857.208,1037.955-1858.106,1037.327Z" transform="translate(1870.765 -1006.987)"/>
              <path id="Pfad_57" data-name="Pfad 57" class="cls-3" d="M-1864.849,1023.869c-1-.494-2.555.209-2.181,1.52a42.878,42.878,0,0,0,1.763,4.058c.576,1.446,1.069,2.94,1.605,4.4.659,1.8,3.507.981,3.549-.769C-1860.033,1029.74-1861.662,1025.438-1864.849,1023.869Z" transform="translate(1867.087 -1014.988)"/>
              <path id="Pfad_58" data-name="Pfad 58" class="cls-3" d="M-1861.778,1034.144a1.119,1.119,0,0,0-1.65.6,16.587,16.587,0,0,0-.129,3.032,20.46,20.46,0,0,1-.464,3.076c-.4,1.868,2.08,3.332,3.2,1.491C-1859.427,1040.066-1859.139,1035.759-1861.778,1034.144Z" transform="translate(1868.878 -1008.898)"/>
            </g>
          </g>
          <g id="Gruppe_79" data-name="Gruppe 79" transform="translate(80.171 191.172)">
            <path id="Pfad_59" data-name="Pfad 59" class="cls-3" d="M-1798.265,1162.58a1.67,1.67,0,0,0-2.464.9,9.311,9.311,0,0,0-.077,3.083,11.782,11.782,0,0,0,.1,3.289c.453,1.6,2.908,2.432,3.824.687C-1795.708,1168.291-1796.224,1164.208-1798.265,1162.58Z" transform="translate(1826.143 -1124.019)"/>
            <path id="Pfad_60" data-name="Pfad 60" class="cls-3" d="M-1800.639,1154.281a.881.881,0,0,0-.865.6,6.694,6.694,0,0,0,0,2.4c.088.787-.1,1.55-.008,2.341.255,2.2,3.673,2.233,4.229.207C-1796.7,1157.7-1798.107,1154.249-1800.639,1154.281Z" transform="translate(1825.721 -1128.769)"/>
            <path id="Pfad_61" data-name="Pfad 61" class="cls-3" d="M-1802.586,1147.029a5.584,5.584,0,0,0-2.789-1.438c-.549-.016-1.483.253-1.64.875-.384,1.507.9,2.349,1.658,3.464.941,1.383,1.44,3.091,2.938,3.991a1.917,1.917,0,0,0,2.827-1.032C-1799.048,1150.411-1800.727,1148.463-1802.586,1147.029Z" transform="translate(1822.48 -1133.92)"/>
            <path id="Pfad_62" data-name="Pfad 62" class="cls-3" d="M-1809.077,1141.549c-.747-.89-1.445-1.811-2.173-2.714a1.812,1.812,0,0,0-2.376-.239,1.857,1.857,0,0,0-.58,2.317,10.808,10.808,0,0,0,5.085,6.075c1.524.7,2.905-1.317,2.215-2.631A16.291,16.291,0,0,0-1809.077,1141.549Z" transform="translate(1818.158 -1138.263)"/>
            <path id="Pfad_63" data-name="Pfad 63" class="cls-3" d="M-1803.951,1158.438a1.37,1.37,0,0,0-2.01.734c-.51,1.321-.088,2.735.08,4.087a17.866,17.866,0,0,0,.634,4.258c.621,1.678,2.975,1.065,3.5-.3a8.5,8.5,0,0,0-.07-4.821C-1802.14,1160.894-1802.59,1159.3-1803.951,1158.438Z" transform="translate(1823.001 -1126.429)"/>
            <path id="Pfad_64" data-name="Pfad 64" class="cls-3" d="M-1807.522,1149.568a1.811,1.811,0,0,0-2.083-.363,1.744,1.744,0,0,0-.9,1.911c.518,1.448,1.1,2.881,1.588,4.34a2.122,2.122,0,0,0,2.442,1.585,2.094,2.094,0,0,0,1.586-2.44A8.532,8.532,0,0,0-1807.522,1149.568Z" transform="translate(1820.413 -1131.889)"/>
            <path id="Pfad_65" data-name="Pfad 65" class="cls-3" d="M-1812.621,1144.079a3.588,3.588,0,0,0-3.041-1.352,1.394,1.394,0,0,0-1.085,1.273,4.305,4.305,0,0,0,1,2.462,11.554,11.554,0,0,0,1.809,2.185,1.642,1.642,0,0,0,2.786-1.443A4.977,4.977,0,0,0-1812.621,1144.079Z" transform="translate(1816.751 -1135.64)"/>
            <path id="Pfad_66" data-name="Pfad 66" class="cls-3" d="M-1803.087,1170.3a6.26,6.26,0,0,0-.978,3.165,15.987,15.987,0,0,0-.245,3.26,1.971,1.971,0,0,0,1.6,1.992,1.929,1.929,0,0,0,2.192-1.308,17.317,17.317,0,0,0,.416-3.552,6.461,6.461,0,0,0-.465-3.451A1.473,1.473,0,0,0-1803.087,1170.3Z" transform="translate(1824.115 -1119.661)"/>
          </g>
        </g>
      </g>
      <g id="Gruppe_93" data-name="Gruppe 93" transform="translate(119.859)">
        <g id="Gruppe_87" data-name="Gruppe 87" transform="translate(26.126 591.036)">
          <g id="Gruppe_86" data-name="Gruppe 86">
            <g id="Gruppe_82" data-name="Gruppe 82" transform="translate(73.743 25.224)">
              <path id="Pfad_67" data-name="Pfad 67" class="cls-3" d="M-1780.54,1288.647a2.85,2.85,0,0,0-3.626,1.534c-1.5,2.719-3.029,5.339-4.3,8.175-.758,1.688,1.5,3.509,2.943,2.26a30.431,30.431,0,0,0,6.518-8.343C-1778.254,1290.959-1779.288,1289.171-1780.54,1288.647Z" transform="translate(1788.618 -1282.836)"/>
              <path id="Pfad_68" data-name="Pfad 68" class="cls-4" d="M-1775.158,1292.437c-.9,7.721-12.952,4.738-12.531-2.464C-1787.18,1281.256-1774.287,1284.958-1775.158,1292.437Z" transform="translate(1789.162 -1284.918)"/>
            </g>
            <g id="Gruppe_83" data-name="Gruppe 83" transform="translate(88.247 36.351)">
              <path id="Pfad_69" data-name="Pfad 69" class="cls-3" d="M-1771.434,1295.633a2.851,2.851,0,0,0-3.627,1.534c-1.5,2.72-3.029,5.339-4.3,8.177-.756,1.688,1.5,3.507,2.943,2.258a30.414,30.414,0,0,0,6.517-8.343C-1769.148,1297.946-1770.182,1296.158-1771.434,1295.633Z" transform="translate(1779.512 -1289.822)"/>
              <path id="Pfad_70" data-name="Pfad 70" class="cls-4" d="M-1766.053,1299.424c-.9,7.721-12.952,4.737-12.53-2.464C-1778.075,1288.242-1765.182,1291.943-1766.053,1299.424Z" transform="translate(1780.056 -1291.905)"/>
            </g>
            <g id="Gruppe_84" data-name="Gruppe 84" transform="translate(103.101 47.747)">
              <path id="Pfad_71" data-name="Pfad 71" class="cls-3" d="M-1762.108,1302.788a2.851,2.851,0,0,0-3.626,1.534c-1.5,2.72-3.029,5.341-4.3,8.177-.757,1.688,1.5,3.507,2.943,2.258a30.416,30.416,0,0,0,6.518-8.343C-1759.821,1305.1-1760.854,1303.313-1762.108,1302.788Z" transform="translate(1770.186 -1296.978)"/>
              <path id="Pfad_72" data-name="Pfad 72" class="cls-4" d="M-1756.727,1306.579c-.9,7.721-12.952,4.737-12.53-2.464C-1768.747,1295.4-1755.856,1299.1-1756.727,1306.579Z" transform="translate(1770.73 -1299.06)"/>
            </g>
            <g id="Gruppe_85" data-name="Gruppe 85" transform="translate(117.604 58.874)">
              <path id="Pfad_73" data-name="Pfad 73" class="cls-3" d="M-1753,1309.775a2.851,2.851,0,0,0-3.627,1.532c-1.5,2.72-3.028,5.34-4.3,8.177-.756,1.688,1.5,3.509,2.945,2.259a30.441,30.441,0,0,0,6.516-8.341C-1750.715,1312.086-1751.748,1310.3-1753,1309.775Z" transform="translate(1761.08 -1303.963)"/>
              <path id="Pfad_74" data-name="Pfad 74" class="cls-4" d="M-1747.619,1313.565c-.9,7.721-12.952,4.738-12.531-2.464C-1759.641,1302.384-1746.75,1306.084-1747.619,1313.565Z" transform="translate(1761.624 -1306.046)"/>
            </g>
            <path id="Pfad_75" data-name="Pfad 75" class="cls-4" d="M-1834.7,1317.011a1.313,1.313,0,0,0,.172.663,1.317,1.317,0,0,0,.924.414q1.025.16,2.056.293a1.587,1.587,0,0,0,1.346-.238,1.59,1.59,0,0,0,.349-.809l1.969-8.854c.059-.267-5.347-1.534-5.887-1.084-.283.234-.312,1.031-.381,1.37q-.157.769-.277,1.547a31.2,31.2,0,0,0-.311,3.128A30.673,30.673,0,0,0-1834.7,1317.011Z" transform="translate(1835.004 -1246.428)"/>
            <path id="Pfad_76" data-name="Pfad 76" class="cls-5" d="M-1701.064,1285.717c-16.778,14.3-25.855,31.2-20.277,37.754,3.252,3.819,7.612,2.58,11.934,3.528,5.4,1.185,10.066,3.945,14.787,6.831,11.374,6.954,23.534,16.233,30.945,27.506,4.888,7.428-.613,11.719-7.956,8.563l-.021-.008c-17.275-7.435-32.594-21.193-47.9-31.944l-16.99-11.931-8.5-5.966c-2.844-2-5.761-4.047-8.785-6.068a115.3,115.3,0,0,0-19.867-11.029,65.78,65.78,0,0,0-11.474-3.611l-3.018-.54c-1.011-.153-2.039-.25-3.053-.369-.494-.064-1.039-.1-1.588-.131s-1.089-.064-1.629-.065a40.477,40.477,0,0,0-25,7.7c-7.733,5.743-14.951,16.247-15.462,26.253a.628.628,0,0,0,.525.645l6.048,1.008a.318.318,0,0,0,.373-.283c.105-1.145,2.053-4.538,2.219-4.807,7.366-11.839,23.188-17.471,36.28-12.837a46.115,46.115,0,0,1,10.052,5.146,109.977,109.977,0,0,1,12.476,9.991c2.446,2.188,4.9,4.482,7.412,6.838l7.578,7.1,15.155,14.191,30.354,28.412c1.314,1.215,2.685,2.467,4.135,3.735s2.956,2.549,4.577,3.826a77.753,77.753,0,0,0,10.983,7.374c.507.288,1.048.559,1.578.833s1.064.546,1.625.8,1.1.516,1.672.769l1.795.741a55.956,55.956,0,0,0,7.481,2.346,53.617,53.617,0,0,0,8.034,1.241,49.985,49.985,0,0,0,8.637-.14,45.482,45.482,0,0,0,9.1-1.991,41.357,41.357,0,0,0,8.984-4.272,41.457,41.457,0,0,0,7.868-6.485q.865-.922,1.7-1.87c.542-.635,1.022-1.293,1.526-1.951.487-.661,1-1.327,1.445-2q.645-1.016,1.268-2.051a49.993,49.993,0,0,0,6.194-17.05,56.18,56.18,0,0,0,.247-17.066c-.215-1.416-.409-2.832-.753-4.246l-.492-2.121c-.164-.706-.4-1.414-.608-2.12l-.666-2.117-.7-1.889c-.239-.624-.47-1.26-.726-1.87l-.793-1.814c-6.813-15.29-18.805-27.219-31.387-37.8-4.469-3.757-7.494-7.913-7.11-13.742.351-5.335,4.539-9.948.249-14.979C-1666.157,1265.125-1684.285,1271.412-1701.064,1285.717Z" transform="translate(1834.918 -1269.081)"/>
            <path id="Pfad_77" data-name="Pfad 77" class="cls-6" d="M-1718.661,1288.735a68.115,68.115,0,0,1-6.931,6.75c-2.007,1.719-4.1,3.351-6.221,4.928-.906.68-1.814,1.343-2.73,2a111.672,111.672,0,0,1-15.026,9.435c-.264.129-.564.268-.879.408-4.151,1.787-12.164,3.615-9.716-3.45,1.357-3.893,4.262-7.586,7.027-10.786.389-.453.776-.9,1.158-1.335a76.2,76.2,0,0,1,28.151-20.073c1.344-.551,2.706-1.072,4.084-1.543,1.844-.632,4.077-1.137,5.6.092C-1710.024,1278.486-1716.384,1286.15-1718.661,1288.735Z" transform="translate(1878.956 -1265.922)"/>
            <path id="Pfad_78" data-name="Pfad 78" class="cls-3" d="M-1721.052,1295.447c-.679-.185-1.516.4-1.163,1.166,1.967,4.264,6.145,7.647,8.994,11.347a96.188,96.188,0,0,1,8.3,12.261c4.8,8.738,7.988,17.786,8.029,27.791.01,2.242,2.951,1.921,3.775.484,2.483-4.335,1.3-9.517.006-14.056a75.766,75.766,0,0,0-6.592-15.755,72.655,72.655,0,0,0-9.131-13.35C-1712.083,1301.692-1716.175,1296.783-1721.052,1295.447Z" transform="translate(1901.67 -1253.475)"/>
            <path id="Pfad_79" data-name="Pfad 79" class="cls-3" d="M-1704.418,1333.238a36.362,36.362,0,0,0-2.265,5.455c-.788,1.983-2.208,3.587-3.041,5.538-1.043,2.443,1.816,4,3.756,2.881,3.867-2.229,6.5-9.467,4.235-13.513C-1702.236,1332.7-1703.735,1332.1-1704.418,1333.238Z" transform="translate(1908.992 -1231.424)"/>
          </g>
          <path id="Pfad_80" data-name="Pfad 80" class="cls-7" d="M-1711.775,1275.487c-1.865,12.2-10.8,21.237-20.449,28.205a79.338,79.338,0,0,1-16.236,9.061c-3.995,1.652-8.61,3.229-12.581.693-.557-.357-.086-1.1.446-1.086a24.438,24.438,0,0,0,10.388-2.494c1.217-.535,2.408-1.1,3.575-1.668.64-.307,1.274-.629,1.9-.96a80.706,80.706,0,0,0,11.313-7.019c2.655-1.965,5.473-4.144,8.147-6.54,1.177-1.045,2.319-2.129,3.415-3.255,4.241-4.385,7.72-9.4,8.959-15.08C-1712.748,1274.635-1711.657,1274.748-1711.775,1275.487Z" transform="translate(1878.558 -1265.651)"/>
        </g>
        <path id="Pfad_81" data-name="Pfad 81" class="cls-8" d="M-1558.041,1013.384c-8.773,31.979-35.6,63.632-28.551,93.983,4.324,18.62,20.986,31.8,23.856,50.854,4.248,28.177-22.535,56.169-27.1,85.443-5.259,33.635,19.487,61.989,17.711,95.507-1.811,34.149-29.891,64.2-54.8,91.63-18.555,20.427-37.279,44.469-43.139,68.923a63.512,63.512,0,0,0-1.841,17.333c-2.674,2.4-5.492,4.574-8.147,6.54a80.706,80.706,0,0,1-11.313,7.019c-.626.331-1.26.653-1.9.96-1.167.564-2.359,1.132-3.575,1.668a55.272,55.272,0,0,0-2.532-12.113c-6.366-19.619-22.758-36.012-38.469-50.141-21.789-19.594-45.356-42.793-42.494-73.622,2.325-25,22.069-49.017,21.521-73.735-.506-23.341-18.74-40.111-35.666-54.855s-34.764-32.154-34.145-55.643c.736-27.877,27.339-53.1,30.949-81.149,2.431-18.923-6.043-36.19-16.518-50.7s-23.2-27.543-30.889-43.8-9.5-37.217,1.663-54.078c24.714-37.327,71.317-58.962,113.634-73.776s89.291-16.84,125.248,1.821S-1546.648,971.846-1558.041,1013.384Z" transform="translate(1851.322 -897.995)"/>
        <g id="Gruppe_92" data-name="Gruppe 92" transform="translate(46.405 164.957)">
          <g id="Gruppe_89" data-name="Gruppe 89" transform="translate(54.996 369.195)">
            <g id="Gruppe_88" data-name="Gruppe 88">
              <path id="Pfad_82" data-name="Pfad 82" class="cls-1" d="M-1781.865,1236.084a10.87,10.87,0,0,0-2.9-2.392c-1.749-1.11-3.389.836-2.744,2.521.347.906.5,1.868.866,2.77s.834,1.731,1.231,2.607c1.284,2.837,6.186,1.169,5.235-1.873A11.408,11.408,0,0,0-1781.865,1236.084Z" transform="translate(1787.656 -1233.366)"/>
              <path id="Pfad_83" data-name="Pfad 83" class="cls-1" d="M-1773.124,1246.206l-.112-.145c.018.018,0-.01-.088-.135-.275-.39-.545-.766-.851-1.128a9.324,9.324,0,0,0-1.535-1.625c-1.475-1.085-3.306-1.5-4.568.2-.916,1.228-.61,3.316.185,4.525a8.127,8.127,0,0,0,3.088,2.977A3.075,3.075,0,0,0-1773.124,1246.206Z" transform="translate(1791.697 -1228.113)"/>
              <path id="Pfad_84" data-name="Pfad 84" class="cls-1" d="M-1763.959,1257.487a14.1,14.1,0,0,0-5.978-5.106c-1.394-.644-2.827.976-2.536,2.3a14.552,14.552,0,0,0,3.969,7.016,3.147,3.147,0,0,0,4.375.167C-1762.765,1260.6-1762.994,1258.86-1763.959,1257.487Z" transform="translate(1796.633 -1222.182)"/>
              <path id="Pfad_85" data-name="Pfad 85" class="cls-1" d="M-1764.74,1244.324c-1.346-.954-3.918-1.456-4.917.349a4.04,4.04,0,0,0,.318,4.412,7.307,7.307,0,0,0,1.731,2.015c.529.392,1.127.717,1.683,1.07a2.974,2.974,0,0,0,4.2-3.851A9.271,9.271,0,0,0-1764.74,1244.324Z" transform="translate(1798.019 -1227.381)"/>
              <path id="Pfad_86" data-name="Pfad 86" class="cls-1" d="M-1754.529,1264.1a5.078,5.078,0,0,0-4.233-1.526,2.27,2.27,0,0,0-1.763,2.068c-.379,2.179,1.26,4.31,2.332,6.084a3.505,3.505,0,0,0,4.616,1.464,3.478,3.478,0,0,0,1.464-4.616A11.913,11.913,0,0,0-1754.529,1264.1Z" transform="translate(1803.703 -1216.074)"/>
              <path id="Pfad_87" data-name="Pfad 87" class="cls-1" d="M-1751.089,1275.531a2.43,2.43,0,0,0-3.005,1.556,7.455,7.455,0,0,0,.056,3.33,12.216,12.216,0,0,0,1.183,2.98c.773,1.629,3.56,1.935,4.42.189a5.613,5.613,0,0,0,.637-4.495C-1748.3,1277.586-1749.45,1275.922-1751.089,1275.531Z" transform="translate(1807.45 -1208.419)"/>
            </g>
          </g>
          <g id="Gruppe_90" data-name="Gruppe 90">
            <path id="Pfad_88" data-name="Pfad 88" class="cls-1" d="M-1817.983,1002.335a2.455,2.455,0,0,0-3.2-.322,2.507,2.507,0,0,0-.781,3.117,27.308,27.308,0,0,0,1.139,2.889,22.706,22.706,0,0,0,1.883,2.9c.846,1.2,2.835,1.163,3.9.39a2.981,2.981,0,0,0,.951-3.8A23.345,23.345,0,0,0-1817.983,1002.335Z" transform="translate(1822.186 -1001.564)"/>
            <path id="Pfad_89" data-name="Pfad 89" class="cls-1" d="M-1812.866,1010.179a3.114,3.114,0,0,0-4.687,2.429c-.264,1.677.58,3.319,1.253,4.815a16.665,16.665,0,0,0,2.708,3.92c2.069,2.424,6.369.2,5.579-2.892a16.553,16.553,0,0,0-1.642-4.472C-1810.488,1012.565-1811.343,1010.928-1812.866,1010.179Z" transform="translate(1824.902 -996.7)"/>
            <path id="Pfad_90" data-name="Pfad 90" class="cls-1" d="M-1805.471,1005.713c-1.032-1.605-2.224-2.845-4.186-3.1a2.225,2.225,0,0,0-2.227,1.545c-.806,3.13,1.526,6.021,3.462,8.2,1.3,1.469,4.477.635,4.309-1.564A10,10,0,0,0-1805.471,1005.713Z" transform="translate(1828.195 -1000.951)"/>
            <path id="Pfad_91" data-name="Pfad 91" class="cls-1" d="M-1804.9,1015.927c-1.559,1.118-.916,3.7-.674,5.262.334,2.16.814,4.294,1.12,6.46.47,3.323,5.8,2.865,5.847-.465a18.933,18.933,0,0,0-1.5-8.309C-1800.874,1017.217-1802.8,1014.416-1804.9,1015.927Z" transform="translate(1831.83 -993.307)"/>
            <path id="Pfad_92" data-name="Pfad 92" class="cls-1" d="M-1804.954,1026.119a2.6,2.6,0,0,0-.881-.677,1.23,1.23,0,0,0-.585-.187l-.1-.019a1.345,1.345,0,0,0-1.789.452l-.07.142c-1.774,1.755-.884,5.121.123,7.12a2.839,2.839,0,0,0,3.055,1.446,2.8,2.8,0,0,0,2.206-2.586,9.03,9.03,0,0,0-.962-4.079A8.359,8.359,0,0,0-1804.954,1026.119Z" transform="translate(1829.77 -987.63)"/>
            <path id="Pfad_93" data-name="Pfad 93" class="cls-1" d="M-1802.76,1037.019c-1.3-1.15-3.84-1.091-4.305.962-.518,2.289-.175,4.671-.111,6.975a2.919,2.919,0,0,0,1.965,2.833,2.839,2.839,0,0,0,3.238-1.182,8.3,8.3,0,0,0,1.209-5.18A7.6,7.6,0,0,0-1802.76,1037.019Z" transform="translate(1830.981 -980.995)"/>
          </g>
          <g id="Gruppe_91" data-name="Gruppe 91" transform="translate(191.51 159.387)">
            <path id="Pfad_94" data-name="Pfad 94" class="cls-1" d="M-1697.648,1103.743c-1.591.612-2.792,2.37-3.454,4.095a10.87,10.87,0,0,0-.634,2.65,6.517,6.517,0,0,0,.618,3.254,2.9,2.9,0,0,0,2.846,1.558,2.959,2.959,0,0,0,2.577-2.023,23.536,23.536,0,0,0,.645-4.343c.072-.613.116-1.22.18-1.833.033-.319.119-.64.129-.959-.018-.205-.033-.409-.049-.615q-.416-.917-.15-.5A1.908,1.908,0,0,0-1697.648,1103.743Z" transform="translate(1702.048 -1100.484)"/>
            <path id="Pfad_95" data-name="Pfad 95" class="cls-1" d="M-1690.734,1101.715a6.221,6.221,0,0,0-1.717.742,5.77,5.77,0,0,0-1.5,1.636,5.126,5.126,0,0,0-.707,1.8,4.855,4.855,0,0,0,.446,3.287,3.006,3.006,0,0,0,2.535,1.633,3.1,3.1,0,0,0,2.712-1.406,5.951,5.951,0,0,0,1.123-3.37,9.056,9.056,0,0,0-.026-1.623c-.052-.334-.17-.658-.245-.991A2.225,2.225,0,0,0-1690.734,1101.715Z" transform="translate(1706.195 -1101.637)"/>
            <path id="Pfad_96" data-name="Pfad 96" class="cls-1" d="M-1691.623,1109.18c-5.375-.069-7.439,10.571-1.4,10.88a3.837,3.837,0,0,0,3.819-3.037,11.867,11.867,0,0,0,.406-2.171c.024-.1.048-.2.075-.3a7.028,7.028,0,0,0,.223-1.58C-1688.491,1111.158-1689.543,1109.207-1691.623,1109.18Z" transform="translate(1705.054 -1097.166)"/>
            <path id="Pfad_97" data-name="Pfad 97" class="cls-1" d="M-1697.79,1115.189a2.938,2.938,0,0,0-2.926,1.263,7.53,7.53,0,0,0,.035,8.292,2.774,2.774,0,0,0,2.636,1.442,2.713,2.713,0,0,0,2.386-1.872,12.489,12.489,0,0,0,.164-6.927A2.937,2.937,0,0,0-1697.79,1115.189Z" transform="translate(1701.945 -1093.629)"/>
            <path id="Pfad_98" data-name="Pfad 98" class="cls-1" d="M-1691.474,1121.691a2.233,2.233,0,0,0-2.574-.449c-1.87,1.075-2.079,3.015-2.2,4.99a15.493,15.493,0,0,0,.564,5.5,3.167,3.167,0,0,0,6.192-1.314c-.188-1.48-.448-2.948-.644-4.425C-1690.34,1124.466-1690.2,1122.8-1691.474,1121.691Z" transform="translate(1705.297 -1090.16)"/>
            <path id="Pfad_99" data-name="Pfad 99" class="cls-1" d="M-1689.844,1132.556c-1.277-1.736-3.81-.648-4.463,1a8,8,0,0,0-.132,4.647,6.111,6.111,0,0,0,2.714,4.021,2.43,2.43,0,0,0,3.571-1.3C-1687.172,1138.186-1688.18,1134.815-1689.844,1132.556Z" transform="translate(1706.228 -1083.834)"/>
          </g>
        </g>
      </g>
    </g>
    <g id="Gruppe_96" data-name="Gruppe 96" transform="translate(-1862.67 842.586)">
      <g id="Gruppe_95" data-name="Gruppe 95" transform="translate(0 142.632)">
        <path id="Pfad_100" data-name="Pfad 100" class="cls-3" d="M-1872.63,933.895a3.066,3.066,0,0,0-3.905-1.578A96.874,96.874,0,0,0-1894.887,940a2.937,2.937,0,0,0-1.5,3.722c1.274,3.862,2.391,7.784,3.319,11.743.11.471.225.945.336,1.419a6.5,6.5,0,0,0-5.769,2.537,6.7,6.7,0,0,0,4.786,10.6,6.463,6.463,0,0,0,6.742-7.36,12.55,12.55,0,0,0,0-2.23,84.177,84.177,0,0,0-3.408-16.362,99.357,99.357,0,0,1,13.326-5.395,95.961,95.961,0,0,1,4.654,13.173,5.249,5.249,0,0,0-.852-.027,6.2,6.2,0,0,0-5.721,4.957,6.6,6.6,0,0,0,3.528,6.92,7.006,7.006,0,0,0,8.263-1.762,9.169,9.169,0,0,0,1.781-7.475,54.328,54.328,0,0,0-2.935-9.932C-1869.618,940.923-1871.06,937.383-1872.63,933.895Z" transform="translate(1899.764 -932.138)"/>
        <path id="Pfad_101" data-name="Pfad 101" class="cls-3" d="M-1812.31,1032.863a9.078,9.078,0,0,0-6.125-.613c-1.6.354-3.342,1.453-4.971,1.5-2.134.062-2.886-1.582-3.781-3.12-1.206-2.072-4.791-.8-4.455,1.564q1.23,8.625,2.3,17.263c.263,2.11.908,4.761,1.279,7.432a8.238,8.238,0,0,0-4.358-.788,6.98,6.98,0,0,0-3.752,1.14,10.038,10.038,0,0,0-4.7,8.32c-.017,3.406,1.875,6.858,5.414,7.594,10.445,2.177,11.233-12.062,10.636-18.945-.449-5.186-.933-10.365-1.378-15.55a6.4,6.4,0,0,0,1.73.366c1.946.142,3.69-.6,5.49-1.209,1.5-.506,2.87-1.169,4.477-.457a3.7,3.7,0,0,1,2.024,4.741c-.906,2.56,2.913,4.457,3.827,1.875C-1807.193,1039.829-1808.073,1034.98-1812.31,1032.863Z" transform="translate(1934.664 -874.379)"/>
        <path id="Pfad_102" data-name="Pfad 102" class="cls-3" d="M-1670.447,1129.928a7.277,7.277,0,0,0-3.166,3.783c-.486,1.217-.543,2.867-1.246,3.969-.919,1.442-2.346,1.2-3.77,1.1-1.916-.135-2.685,2.814-.97,3.655q6.267,3.07,12.471,6.256c1.516.776,3.563,1.543,5.5,2.5a6.624,6.624,0,0,0-2.485,2.533,5.6,5.6,0,0,0-.935,3,8.042,8.042,0,0,0,3.394,6.865c2.246,1.547,5.387,1.847,7.468-.164,6.148-5.941-2.93-12.875-7.758-15.581-3.638-2.039-7.288-4.05-10.923-6.092a5.184,5.184,0,0,0,1.023-.979,11.167,11.167,0,0,0,1.672-4.182c.338-1.218.518-2.427,1.712-3.171a2.96,2.96,0,0,1,4.053.793c1.289,1.755,4.265.08,2.967-1.69C-1663.526,1129.676-1667.135,1128.075-1670.447,1129.928Z" transform="translate(2029.695 -815.376)"/>
        <path id="Pfad_103" data-name="Pfad 103" class="cls-5" d="M-1654.834,1062.034q-.66-.457-1.327-.9a5.476,5.476,0,0,0-4.294-1.158c-1.938.5-3.565,2.529-4.922,3.875a57.276,57.276,0,0,0-7.36,8.948c-1.328,2-4.452,5.927-3.682,8.55.368,1.257,2.145,2.266,3.111,3.029,3.292,2.6,6.962,4.815,10.112,7.584,1.695,1.392,3.547,2.9,5.291,4.515-.1.032-.2.061-.307.1-4.168,1.507-5.576,8.333-4.568,12.1,1.094,4.093,5.484,7.551,9.81,5.981,3.66-1.328,5.262-5.646,4.684-9.255-.873-5.452-5.974-9.585-9.8-13.084a98.37,98.37,0,0,0-10.658-8.938A103.3,103.3,0,0,1-1656,1065.472c2.824,2.155,5.762,4.162,8.518,6.425,1.695,1.392,3.547,2.894,5.291,4.515-.1.03-.2.061-.307.1-4.168,1.505-5.576,8.332-4.568,12.1,1.094,4.092,5.484,7.551,9.809,5.981,3.658-1.33,5.262-5.648,4.684-9.257-.873-5.452-5.974-9.585-9.8-13.083-2.907-2.661-5.869-5.269-8.988-7.678C-1652.5,1063.7-1653.654,1062.849-1654.834,1062.034Z" transform="translate(2032.074 -856.431)"/>
        <path id="Pfad_104" data-name="Pfad 104" class="cls-4" d="M-1722.741,1209.546c0-.57-.016-1.139-.035-1.709a5.835,5.835,0,0,0-1.631-4.455c-1.626-1.384-4.4-1.554-6.4-1.911a61.243,61.243,0,0,0-12.328-.917c-2.556.068-7.9-.239-9.72,2.043-.87,1.094-.656,3.265-.729,4.577-.247,4.471.081,9.031-.4,13.481-.172,2.333-.344,4.872-.685,7.389-.091-.069-.178-.14-.276-.207-3.875-2.709-10.7.26-13.365,3.458-2.9,3.469-3.214,9.424.814,12.23,3.408,2.375,8.161,1.12,10.953-1.6,4.217-4.112,4.686-11.1,5.386-16.585a104.758,104.758,0,0,0,1.245-14.79,110.059,110.059,0,0,1,23.455.092c-.145,3.788-.088,7.585-.368,11.378-.172,2.333-.344,4.872-.685,7.39-.091-.07-.179-.14-.276-.208-3.877-2.709-10.7.26-13.365,3.458-2.9,3.469-3.214,9.424.814,12.23,3.408,2.375,8.159,1.12,10.953-1.6,4.218-4.113,4.686-11.1,5.386-16.585.534-4.171.988-8.357,1.173-12.559C-1722.758,1212.608-1722.726,1211.076-1722.741,1209.546Z" transform="translate(1976.378 -773.058)"/>
        <path id="Pfad_105" data-name="Pfad 105" class="cls-3" d="M-1635.467,981.094c-.108-.4-.22-.792-.338-1.187a4.212,4.212,0,0,0-1.951-2.814c-1.389-.671-3.354-.284-4.823-.166a44.311,44.311,0,0,0-8.779,1.609c-1.772.514-5.563,1.276-6.415,3.2-.408.922.137,2.4.325,3.329.645,3.168,1.7,6.295,2.182,9.49.306,1.661.65,3.466.871,5.286-.076-.032-.15-.065-.231-.094-3.2-1.185-7.422,2.133-8.7,4.855-1.389,2.951-.524,7.169,2.8,8.394,2.814,1.037,5.9-.707,7.358-3.119,2.195-3.643,1.246-8.61.736-12.568a75.646,75.646,0,0,0-1.83-10.558,79.5,79.5,0,0,1,16.4-4.216c.591,2.671,1.323,5.313,1.821,8.015.306,1.661.648,3.466.87,5.286-.075-.032-.15-.065-.229-.094-3.2-1.185-7.424,2.133-8.7,4.855-1.39,2.951-.526,7.169,2.8,8.394,2.814,1.037,5.9-.707,7.358-3.119,2.195-3.643,1.247-8.61.736-12.568-.388-3.012-.836-6.017-1.473-8.986Q-1635.037,982.7-1635.467,981.094Z" transform="translate(2039.525 -905.721)"/>
      </g>
      <path id="Pfad_106" data-name="Pfad 106" class="cls-4" d="M-1749.864,843.9a11.091,11.091,0,0,0-7.526.239c-1.879.683-3.816,2.3-5.786,2.615-2.577.419-3.751-1.454-5.084-3.176-1.793-2.319-5.936-.2-5.149,2.612q2.874,10.256,5.554,20.56c.656,2.518,1.863,5.627,2.742,8.8a10.07,10.07,0,0,0-5.41-.255,8.527,8.527,0,0,0-4.365,1.983,12.277,12.277,0,0,0-4.369,10.843c.524,4.13,3.374,8.013,7.782,8.338,13.013.964,11.684-16.426,9.856-24.674-1.376-6.216-2.8-12.418-4.167-18.633a7.855,7.855,0,0,0,2.156.167c2.383-.14,4.378-1.317,6.463-2.346,1.731-.855,3.292-1.878,5.353-1.274a4.521,4.521,0,0,1,3.216,5.425c-.688,3.251,4.246,4.937,4.941,1.66C-1742.542,851.521-1744.388,845.783-1749.864,843.9Z" transform="translate(1971.137 -842.586)"/>
    </g>
    <g id="Gruppe_98" data-name="Gruppe 98" transform="translate(-1962.348 1376.57)">
      <path id="Pfad_107" data-name="Pfad 107" class="cls-4" d="M-1807.128,1244.107a6.2,6.2,0,0,1-.731.251l-3.8,1.035-4.34,1.188-6.82,1.859-2.287.626-7.9,2.154-3.6.986-2.287.62-2.975.811-5.667,1.547-2.865.782-2.281.626-3.727,1.013-7.774,2.128-2.285.62-8.109,2.214-3.4.925-2.287.626-3.177.865-5.382,1.472-2.942.8-2.281.621-3.643.992-7.863,2.145-2.282.627-8.316,2.27-3.192.87-2.286.62-3.386.926-6.543,1.789-3.15.857-4.921,1.344a6.946,6.946,0,0,1-.812.164,6.3,6.3,0,0,1-6.916-4.579l-14.774-54.147a6.289,6.289,0,0,1,4.412-7.72l131.772-35.956a6.284,6.284,0,0,1,7.72,4.406l14.776,54.149A6.282,6.282,0,0,1-1807.128,1244.107Z" transform="translate(1962.348 -1177.852)"/>
      <g id="Gruppe_97" data-name="Gruppe 97" transform="translate(15.145 21.742)">
        <path id="Pfad_108" data-name="Pfad 108" class="cls-3" d="M-1817.291,1237.3l-4.34,1.188-6.82,1.859-2.287.626-7.9,2.153-3.6.986-2.287.62-2.975.811-5.667,1.547-2.865.782-2.281.626-3.727,1.013-7.774,2.128-2.285.62-8.109,2.214-3.4.925-2.287.626-3.177.865-5.382,1.472-2.942.8-2.281.621-3.643.992-7.863,2.145-2.282.628-8.316,2.27-3.192.87-2.286.62-3.386.926-6.543,1.788-3.15.857a3.372,3.372,0,0,1-.593-1.185l-8.515-31.19-3.276-11.995a3.459,3.459,0,0,1-.072-1.456l12.154-3.316,2.727-.744,11.062-3.023,2.725-.737,11.063-3.021,2.725-.744,11.07-3.021,2.717-.737,0-.008,11.068-3.013,2.719-.746,11.069-3.021,2.725-.744,11.063-3.015,2.725-.744,11.063-3.023,2.717-.737,11.563-3.157a3.4,3.4,0,0,1,.675,1.29l3.173,11.632,8.612,31.56A3.274,3.274,0,0,1-1817.291,1237.3Z" transform="translate(1952.839 -1191.503)"/>
        <path id="Pfad_109" data-name="Pfad 109" class="cls-4" d="M-1868.911,1239.175l-2.287.626c-.613-1.948-1.2-3.908-1.77-5.861-2.843-9.665-5.573-19.363-8.411-29.019-1.05-3.573-2.128-7.129-3.2-10.7l2.717-.738q4.035,13.671,7.908,27.388c1.363,4.792,2.776,9.574,4.022,14.408C-1869.6,1236.577-1869.245,1237.871-1868.911,1239.175Z" transform="translate(1993.299 -1190.328)"/>
        <path id="Pfad_110" data-name="Pfad 110" class="cls-4" d="M-1877.568,1241.541l-2.287.62q-.918-2.929-1.77-5.861c-2.579-8.8-5.081-17.615-7.659-26.418-.25-.871-.5-1.736-.757-2.6-1.045-3.564-2.123-7.129-3.193-10.69l2.725-.744q1.928,6.541,3.808,13.1,2.061,7.143,4.092,14.293c1.363,4.8,2.776,9.579,4.022,14.406C-1878.251,1238.938-1877.9,1240.238-1877.568,1241.541Z" transform="translate(1988.168 -1188.929)"/>
        <path id="Pfad_111" data-name="Pfad 111" class="cls-4" d="M-1886.231,1243.9l-2.281.626c-.613-1.946-1.2-3.907-1.768-5.867-2.622-8.9-5.148-17.83-7.75-26.739-.22-.76-.441-1.513-.661-2.273-1.051-3.566-2.129-7.129-3.2-10.7l2.725-.744q1.986,6.761,3.934,13.528,2.007,6.924,3.966,13.866c1.365,4.793,2.776,9.58,4.015,14.406C-1886.915,1241.3-1886.566,1242.6-1886.231,1243.9Z" transform="translate(1983.037 -1187.53)"/>
        <path id="Pfad_112" data-name="Pfad 112" class="cls-4" d="M-1894.882,1246.267l-2.285.62c-.613-1.953-1.2-3.909-1.77-5.861-2.843-9.665-5.574-19.356-8.409-29.019-1.051-3.566-2.129-7.129-3.2-10.69l2.719-.745q4.023,13.68,7.908,27.388c1.357,4.8,2.776,9.58,4.022,14.408C-1895.57,1243.662-1895.216,1244.962-1894.882,1246.267Z" transform="translate(1977.906 -1186.129)"/>
        <path id="Pfad_113" data-name="Pfad 113" class="cls-4" d="M-1903.544,1248.626l-2.287.626c-.607-1.946-1.191-3.907-1.761-5.868-2.6-8.827-5.1-17.692-7.689-26.53-.244-.83-.486-1.653-.728-2.483-1.051-3.566-2.129-7.129-3.193-10.7l2.719-.745,0,.008q1.94,6.591,3.848,13.188,2.05,7.091,4.06,14.2c1.358,4.792,2.776,9.58,4.021,14.4C-1904.228,1246.029-1903.879,1247.322-1903.544,1248.626Z" transform="translate(1972.775 -1184.73)"/>
        <path id="Pfad_114" data-name="Pfad 114" class="cls-4" d="M-1912.2,1250.99l-2.281.621c-.612-1.954-1.2-3.909-1.774-5.863-2.611-8.9-5.138-17.816-7.741-26.718-.218-.766-.444-1.534-.67-2.3-1.051-3.558-2.13-7.123-3.2-10.69l2.725-.744q1.978,6.73,3.923,13.466,2,6.952,3.985,13.922c1.357,4.792,2.774,9.58,4.014,14.406C-1912.882,1248.387-1912.533,1249.687-1912.2,1250.99Z" transform="translate(1967.642 -1183.328)"/>
        <path id="Pfad_115" data-name="Pfad 115" class="cls-4" d="M-1920.854,1253.347l-2.282.628c-.612-1.953-1.2-3.908-1.774-5.869-2.836-9.655-5.566-19.354-8.411-29.011-1.05-3.573-2.128-7.129-3.2-10.7l2.725-.737q4.024,13.67,7.908,27.39c1.357,4.791,2.776,9.574,4.013,14.406C-1921.539,1250.751-1921.189,1252.045-1920.854,1253.347Z" transform="translate(1962.51 -1181.927)"/>
        <path id="Pfad_116" data-name="Pfad 116" class="cls-4" d="M-1929.513,1255.715l-2.286.62q-.908-2.929-1.77-5.861c-2.6-8.867-5.119-17.76-7.714-26.627-.228-.8-.462-1.6-.7-2.392-1.051-3.566-2.129-7.129-3.2-10.69l2.727-.744q1.952,6.644,3.874,13.306,2.031,7.038,4.033,14.083c1.357,4.8,2.776,9.58,4.015,14.406C-1930.195,1253.113-1929.847,1254.411-1929.513,1255.715Z" transform="translate(1957.379 -1180.528)"/>
      </g>
      <path id="Pfad_117" data-name="Pfad 117" class="cls-5" d="M-1874.827,1235.692l-3.6.986-2.287.62-2.975.811c-2.317-8.437-4.842-16.812-7.32-25.2a11.739,11.739,0,0,1-.712-4.871,4.461,4.461,0,0,1,.432-1.4,6.257,6.257,0,0,1,1.147-1.623,2.976,2.976,0,0,1,2.583-.94c2.524.323,5.07,3.657,5.872,6.213,2.045,6.484,4.087,12.973,5.818,19.547A21.293,21.293,0,0,1-1874.827,1235.692Z" transform="translate(2004.173 -1162.324)"/>
      <path id="Pfad_118" data-name="Pfad 118" class="cls-5" d="M-1883.948,1238.18l-2.865.782-2.281.626-3.727,1.013c-2.309-8.435-4.834-16.811-7.311-25.206a11.777,11.777,0,0,1-.72-4.864,4.464,4.464,0,0,1,.438-1.4,5.186,5.186,0,0,1,1.8-2.153,3.011,3.011,0,0,1,2.8-.186c2.215.854,4.288,3.721,5,5.99,2.037,6.482,4.081,12.971,5.818,19.547A21.5,21.5,0,0,1-1883.948,1238.18Z" transform="translate(1998.764 -1160.849)"/>
      <path id="Pfad_119" data-name="Pfad 119" class="cls-5" d="M-1900.928,1242.816l-3.4.925-2.287.626-3.177.865c-2.317-8.437-4.842-16.811-7.32-25.2a11.742,11.742,0,0,1-.712-4.87,4.472,4.472,0,0,1,.432-1.4,5.914,5.914,0,0,1,1.327-1.8,2.927,2.927,0,0,1,2.644-.729c2.443.5,4.855,3.7,5.632,6.175,2.045,6.484,4.087,12.973,5.818,19.547A21.269,21.269,0,0,1-1900.928,1242.816Z" transform="translate(1988.703 -1158.103)"/>
      <path id="Pfad_120" data-name="Pfad 120" class="cls-5" d="M-1909.872,1245.257l-2.942.8-2.281.621-3.643.992c-2.316-8.437-4.842-16.813-7.319-25.2a11.712,11.712,0,0,1-.713-4.871,4.472,4.472,0,0,1,.432-1.4,5.321,5.321,0,0,1,1.728-2.106,3,3,0,0,1,2.778-.269c2.249.806,4.374,3.729,5.1,6.024,2.045,6.484,4.087,12.974,5.818,19.547A21.317,21.317,0,0,1-1909.872,1245.257Z" transform="translate(1983.401 -1156.657)"/>
      <path id="Pfad_121" data-name="Pfad 121" class="cls-5" d="M-1927.029,1249.941l-3.192.87-2.286.62-3.386.926c-2.317-8.435-4.842-16.811-7.32-25.2a11.746,11.746,0,0,1-.712-4.87,4.32,4.32,0,0,1,.432-1.4,5.65,5.65,0,0,1,1.5-1.946,2.936,2.936,0,0,1,2.7-.521c2.362.643,4.635,3.716,5.4,6.117,2.043,6.484,4.081,12.973,5.817,19.548A21.207,21.207,0,0,1-1927.029,1249.941Z" transform="translate(1973.232 -1153.881)"/>
      <path id="Pfad_122" data-name="Pfad 122" class="cls-5" d="M-1936.7,1252.579l-3.15.857-4.921,1.344a6.946,6.946,0,0,1-.812.164c-2.306-8.421-4.826-16.782-7.3-25.15a11.7,11.7,0,0,1-.713-4.871,4.288,4.288,0,0,1,.431-1.4c1.19-2.322,2.716-2.881,4.208-2.467,2.361.644,4.633,3.72,5.395,6.116,2.045,6.484,4.081,12.973,5.818,19.547A21.35,21.35,0,0,1-1936.7,1252.579Z" transform="translate(1967.498 -1152.316)"/>
      <path id="Pfad_123" data-name="Pfad 123" class="cls-5" d="M-1858.582,1231.208a6.2,6.2,0,0,1-.731.252l-3.8,1.035-4.34,1.188c-2.3-8.44-4.84-16.819-7.319-25.206a11.843,11.843,0,0,1-.712-4.871,4.285,4.285,0,0,1,.438-1.4c.93-1.817,2.064-2.558,3.235-2.595,2.676-.086,5.5,3.52,6.367,6.244,2.037,6.484,4.081,12.973,5.817,19.547A21.611,21.611,0,0,1-1858.582,1231.208Z" transform="translate(2013.801 -1164.953)"/>
    </g>
    <g id="Gruppe_100" data-name="Gruppe 100" transform="translate(-1455.711 927.819)">
      <path id="Pfad_124" data-name="Pfad 124" class="cls-3" d="M-1593.7,950.527a1.176,1.176,0,0,0-1.967,1.287c3.534,6.427,7.9,13.473,7.191,21.113-.561,6.02-4.24,11.176-8.257,15.464-8.91,9.51-20.2,16.561-28.134,27.033-6.649,8.777-10.955,20.1-8.277,31.146,2.636,10.867,12.138,18.636,22.29,22.276,13.67,4.9,28.688,2.743,42.5-.319,2.688-.6,1.9-5.125-.852-4.8-12.317,1.464-25.218,4.065-37.451.728-10.968-2.993-21.4-11.377-22.155-23.422-1.621-25.777,27.6-37.043,39.877-55.377,3.171-4.73,5.262-10.383,4.641-16.153C-1585.076,962.236-1589.3,956.108-1593.7,950.527Z" transform="translate(1650.359 -864.135)"/>
      <g id="Gruppe_99" data-name="Gruppe 99">
        <path id="Pfad_125" data-name="Pfad 125" class="cls-4" d="M-1585.269,984.872l-3.6,1.86a7.694,7.694,0,0,1-10.154-2.926l-34.53-58.462,24.144-12.46,27.643,62.017A7.694,7.694,0,0,1-1585.269,984.872Z" transform="translate(1650.591 -886.152)"/>
        <path id="Pfad_126" data-name="Pfad 126" class="cls-2" d="M-1601.742,904.408a21.932,21.932,0,0,0-19.608-8.2c-15.249,1.437-27.707,16.881-21.078,31.584,5.484,12.163,20,17.9,32.141,12.3a24.175,24.175,0,0,0,13.1-15.086A23.552,23.552,0,0,0-1601.742,904.408Z" transform="translate(1644.252 -896.1)"/>
        <path id="Pfad_127" data-name="Pfad 127" class="cls-3" d="M-1599.53,904.872c-6.731,5.653-13.127,11.678-21.08,15.626a43.352,43.352,0,0,1-10.84,3.729c-2,.4-3.98.655-6,.876-1.782.2-3.692.2-5.24,1.177a1.256,1.256,0,0,0-.343,1.942c2.6,2.7,7.626,2.2,11.025,1.8a43.3,43.3,0,0,0,12.833-3.886,66.868,66.868,0,0,0,22.808-17.843C-1594.5,906.055-1597.163,902.884-1599.53,904.872Z" transform="translate(1644.778 -891.273)"/>
        <path id="Pfad_128" data-name="Pfad 128" class="cls-5" d="M-1612.63,928.024c.793.43,1.282,1.714,1.72,2.448q3.151,5.3,5.847,10.846c.271.561-.024.913-.538,1.175q-4.107,2.1-8.214,4.2a1.212,1.212,0,0,1-.54.174c-.761-.006-1.341-1.677-1.641-2.215q-.924-1.661-1.854-3.321-1.82-3.256-3.65-6.51c-.362-.643-1.115-1.588-.5-2.309a2.5,2.5,0,0,1,.774-.541q3.5-1.83,7-3.654C-1613.76,928.076-1613.146,927.743-1612.63,928.024Z" transform="translate(1657.302 -877.241)"/>
        <path id="Pfad_129" data-name="Pfad 129" class="cls-4" d="M-1613.838,938.247h0a3.435,3.435,0,0,1-4.628-1.478l-.484-.938a3.435,3.435,0,0,1,1.477-4.628h0a3.435,3.435,0,0,1,4.628,1.478l.484.938A3.436,3.436,0,0,1-1613.838,938.247Z" transform="translate(1659.021 -875.521)"/>
      </g>
    </g>
  </g>
</svg>
