<svg xmlns="http://www.w3.org/2000/svg" viewBox="0 0 603.92 819.59">
  <defs>
    <style>
      .cls-1{fill:#4844eb}.cls-2{fill:#ff0058}.cls-3{fill:#fff}.cls-4{fill:#643af1}.cls-5{fill:#9381ff}
    </style>
  </defs>
  <g id="Layer_2" data-name="Layer 2">
    <g id="Whole_Illustration_Group" data-name="Whole Illustration Group">
      <g id="Whole_Illustration" data-name="Whole Illustration">
        <g id="Big_Illustration" data-name="Big Illustration">
          <g id="Back">
            <path id="Pfad_46" d="M391.58 662c20.15-7.22 41.87-9 62.37-15.17s41.06-18.22 49-38.12c9.64-24.26-1.38-55 14.13-76 10.39-14.07 30.55-20 37.34-36.06 4.76-11.28 1.42-24.28 3.56-36.33 4.22-23.83 28.11-38.7 39.31-60.16 9.09-17.42 9-39.47-.88-56.49s-29.23-28.21-48.87-27.65-38.59 13.16-46.19 31.28c-10.3 24.58-.86 56.46-18.17 76.72-12.08 14.13-33.36 17.3-45.93 31-20.84 22.7-7.84 60.58-20.94 88.47-8.42 17.91-26.3 29.07-40.27 43.09a120.41 120.41 0 0 0-30.51 53.8c-3.95 14.83-10.33 49.22 1 61.4 6.33-6.87 9.58-16.77 17.27-23.71 7.93-7.17 17.7-12.43 27.78-16.07z" class="cls-1" data-name="Pfad 46"/>
            <path id="Pfad_47" d="M305.33 684.43c-15.58-6.11-33.22-6.76-49.28-11.76-29.4-9.16-52.13-33.76-58.17-63-4.48-21.66-.39-45.34-8.54-65.8-9.77-24.51-34.75-39.13-57.14-53.91S87 455.81 85.42 429.17c-1.16-19 8.94-38.81 4.18-57.08-4.29-16.46-19.56-27.5-27.38-42.54-12.84-24.68-1.16-59.6 25-74.4s62.44-6.92 77 16.8c22 35.92-5.47 89.58 19.31 123.73 13.08 18 37 25 56.46 36.65a114 114 0 0 1 53.92 79.92c4.14 27.27-1.59 56 4.26 82.9 4.84 22.26 17.3 41.78 26.21 62.63 7.08 16.58 13.06 36.81 7.91 55.27-3.78-13.39-13.65-23.4-26.96-28.62z" class="cls-2" data-name="Pfad 47"/>
            <g id="Gruppe_80" data-name="Gruppe 80">
              <g id="Gruppe_78" data-name="Gruppe 78">
                <g id="Gruppe_76" data-name="Gruppe 76">
                  <path id="Pfad_48" d="M161.85 374.16c-1.18 2.08-.24 5.4 1 7.28a1.7 1.7 0 0 0 2 .79 1.66 1.66 0 0 0 1.07-1.9c-.32-1-.67-2-.93-3a11.51 11.51 0 0 0-.77-3 1.4 1.4 0 0 0-1.9-.57 1.35 1.35 0 0 0-.47.4z" class="cls-3" data-name="Pfad 48"/>
                  <path id="Pfad_49" d="M171.73 388.29a8 8 0 0 0-2.31-2.54 1.4 1.4 0 0 0-1.91.5 1.37 1.37 0 0 0-.17.95 8.1 8.1 0 0 0 1.64 3 11.52 11.52 0 0 0 2.38 2.45 1.28 1.28 0 0 0 1.75-.44 1.32 1.32 0 0 0 .16-.89 11.48 11.48 0 0 0-1.54-3.03z" class="cls-3" data-name="Pfad 49"/>
                  <path id="Pfad_50" d="M160.91 384.54a1.17 1.17 0 0 0-1.6.41 1.2 1.2 0 0 0-.15.81 11.69 11.69 0 0 0 2.06 4.2 1.36 1.36 0 0 0 1.62.28 1.4 1.4 0 0 0 .71-1.49 6 6 0 0 0-2.64-4.21z" class="cls-3" data-name="Pfad 50"/>
                  <path id="Pfad_51" d="M170 396.94a5 5 0 0 0-1-.9 4 4 0 0 0-1-.25.45.45 0 0 0-.57.39 7.64 7.64 0 0 0-.1.82 4.11 4.11 0 0 0 .55 1.45 10.72 10.72 0 0 0 1.87 2.47 1.27 1.27 0 0 0 1.79 0 1.25 1.25 0 0 0 .25-1.45 10.39 10.39 0 0 0-1.79-2.53z" class="cls-3" data-name="Pfad 51"/>
                  <path id="Pfad_52" d="M178.12 399.47c-1.16-.83-2.38.62-1.9 1.74.8 1.89 2.14 4.18 4.25 4.74a1.16 1.16 0 0 0 1.46-.78 1.09 1.09 0 0 0 0-.26c-.06-2.38-1.93-4.14-3.81-5.44z" class="cls-3" data-name="Pfad 52"/>
                  <path id="Pfad_53" d="M190.74 409.41a11 11 0 0 0-2-1.51 6.45 6.45 0 0 0-1-.53c-.36-.13-.75-.14-1.1-.27a.46.46 0 0 0-.57.31.47.47 0 0 0 0 .33c.18.34.23.74.41 1.08a6.7 6.7 0 0 0 .6.87 9.32 9.32 0 0 0 1.57 1.69 1.49 1.49 0 0 0 2 .08 1.46 1.46 0 0 0 .09-2.05z" class="cls-3" data-name="Pfad 53"/>
                </g>
                <g id="Gruppe_77" data-name="Gruppe 77">
                  <path id="Pfad_54" d="M158.81 281.82c-.57-.8-2.68-3.15-3.68-1.48-.79 1.31.13 2.76.76 4a13.5 13.5 0 0 0 3 4.32 1.3 1.3 0 0 0 1.84 0 1.26 1.26 0 0 0 .38-.8 9.89 9.89 0 0 0-2.3-6.04z" class="cls-3" data-name="Pfad 54"/>
                  <path id="Pfad_55" d="M161.39 294.83c-.47 1 0 2.13.17 3.14a23.26 23.26 0 0 1 .57 4.23c0 1.67 2.54 2.34 3 .55a7.82 7.82 0 0 0-.57-6.1c-.26-.46-2.47-3.26-3.17-1.82z" class="cls-3" data-name="Pfad 55"/>
                  <path id="Pfad_56" d="M164.39 310.09a.78.78 0 0 0-.94.09 6.27 6.27 0 0 0-.93 2.5c-.28.93-.57 1.85-.84 2.79a1.5 1.5 0 0 0 1 1.85 1.51 1.51 0 0 0 1.67-.6 6.35 6.35 0 0 0 1.06-3.51c.01-1.02-.13-2.49-1.02-3.12z" class="cls-3" data-name="Pfad 56"/>
                  <path id="Pfad_57" d="M154 288.64c-1-.5-2.56.2-2.19 1.52a42.78 42.78 0 0 0 1.77 4c.57 1.45 1.07 2.94 1.6 4.4.66 1.8 3.51 1 3.55-.77.05-3.28-1.58-7.59-4.73-9.15z" class="cls-3" data-name="Pfad 57"/>
                  <path id="Pfad_58" d="M158.83 305a1.12 1.12 0 0 0-1.54.37 1 1 0 0 0-.11.23 16.19 16.19 0 0 0-.13 3 19.92 19.92 0 0 1-.47 3.08c-.4 1.87 2.08 3.33 3.2 1.49 1.4-2.25 1.69-6.55-.95-8.17z" class="cls-3" data-name="Pfad 58"/>
                </g>
              </g>
              <g id="Gruppe_79" data-name="Gruppe 79">
                <path id="Pfad_59" d="M259.78 509.49a1.67 1.67 0 0 0-2.3.54 1.49 1.49 0 0 0-.17.36 9.37 9.37 0 0 0-.07 3.08 11.7 11.7 0 0 0 .1 3.29c.45 1.6 2.9 2.43 3.82.69 1.17-2.25.66-6.33-1.38-7.96z" class="cls-3" data-name="Pfad 59"/>
                <path id="Pfad_60" d="M257 496.44a.87.87 0 0 0-.86.6 6.46 6.46 0 0 0 0 2.4c.08.79-.1 1.55 0 2.34.25 2.2 3.67 2.23 4.23.21s-.86-5.58-3.37-5.55z" class="cls-3" data-name="Pfad 60"/>
                <path id="Pfad_61" d="M251.79 484a5.52 5.52 0 0 0-2.79-1.4c-.55 0-1.48.25-1.64.87-.38 1.51.9 2.35 1.66 3.47.94 1.38 1.44 3.09 2.94 4a1.93 1.93 0 0 0 2.64-.63 2.09 2.09 0 0 0 .19-.4c.54-2.49-1.14-4.44-3-5.91z" class="cls-3" data-name="Pfad 61"/>
                <path id="Pfad_62" d="M241 474.21c-.75-.89-1.45-1.81-2.17-2.71a1.81 1.81 0 0 0-2.38-.24 1.87 1.87 0 0 0-.58 2.32 10.82 10.82 0 0 0 5.09 6.07c1.52.7 2.9-1.32 2.21-2.63a16.86 16.86 0 0 0-2.17-2.81z" class="cls-3" data-name="Pfad 62"/>
                <path id="Pfad_63" d="M251 502.94a1.36 1.36 0 0 0-1.88.46.84.84 0 0 0-.13.27c-.51 1.32-.09 2.73.08 4.09a18.05 18.05 0 0 0 .63 4.26c.62 1.67 3 1.06 3.5-.3a8.45 8.45 0 0 0-.07-4.83c-.37-1.5-.82-3.09-2.13-3.95z" class="cls-3" data-name="Pfad 63"/>
                <path id="Pfad_64" d="M244.79 488.61a1.8 1.8 0 0 0-2.08-.37 1.74 1.74 0 0 0-.9 1.91c.51 1.45 1.1 2.88 1.58 4.34a2.13 2.13 0 0 0 2.45 1.59 2.08 2.08 0 0 0 1.58-2.44 8.44 8.44 0 0 0-2.63-5.03z" class="cls-3" data-name="Pfad 64"/>
                <path id="Pfad_65" d="M236 479.37a3.59 3.59 0 0 0-3-1.36 1.4 1.4 0 0 0-1.09 1.28 4.39 4.39 0 0 0 1 2.46 11.47 11.47 0 0 0 1.81 2.18 1.63 1.63 0 0 0 2.32 0 1.65 1.65 0 0 0 .47-1.46 5 5 0 0 0-1.51-3.1z" class="cls-3" data-name="Pfad 65"/>
                <path id="Pfad_66" d="M252.93 521.57a6.12 6.12 0 0 0-1 3.16 16.23 16.23 0 0 0-.25 3.26 2 2 0 0 0 1.6 2 1.93 1.93 0 0 0 2.2-1.31 16.88 16.88 0 0 0 .41-3.55 6.48 6.48 0 0 0-.46-3.45 1.48 1.48 0 0 0-2-.58 1.41 1.41 0 0 0-.5.47z" class="cls-3" data-name="Pfad 66"/>
              </g>
            </g>
          </g>
          <g id="Middle">
            <g id="Gruppe_87" data-name="Gruppe 87">
              <g id="Gruppe_86" data-name="Gruppe 86">
                <g id="Gruppe_82" data-name="Gruppe 82">
                  <path id="Pfad_67" d="M284.78 710.32a2.84 2.84 0 0 0-3.62 1.53c-1.5 2.72-3 5.34-4.3 8.18-.76 1.69 1.5 3.51 2.94 2.26a30.44 30.44 0 0 0 6.52-8.35c.75-1.31-.32-3.1-1.54-3.62z" class="cls-3" data-name="Pfad 67"/>
                  <path id="Pfad_68" d="M290.71 712c-.9 7.72-12.95 4.74-12.53-2.47.51-8.68 13.4-4.98 12.53 2.47z" class="cls-4" data-name="Pfad 68"/>
                </g>
                <g id="Gruppe_83" data-name="Gruppe 83">
                  <path id="Pfad_69" d="M299.29 721.45a2.85 2.85 0 0 0-3.63 1.53c-1.5 2.72-3 5.34-4.3 8.18-.76 1.69 1.5 3.5 2.94 2.26a30.4 30.4 0 0 0 6.52-8.35c.75-1.31-.28-3.07-1.53-3.62z" class="cls-3" data-name="Pfad 69"/>
                  <path id="Pfad_70" d="M305.21 723.15c-.9 7.72-12.95 4.74-12.53-2.46.51-8.69 13.4-5.02 12.53 2.46z" class="cls-4" data-name="Pfad 70"/>
                </g>
                <g id="Gruppe_84" data-name="Gruppe 84">
                  <path id="Pfad_71" d="M314.14 732.84a2.85 2.85 0 0 0-3.62 1.53c-1.5 2.72-3 5.35-4.3 8.18-.76 1.69 1.5 3.51 2.94 2.26a30.55 30.55 0 0 0 6.52-8.34c.75-1.32-.28-3.1-1.54-3.63z" class="cls-3" data-name="Pfad 71"/>
                  <path id="Pfad_72" d="M320.07 734.55c-.9 7.72-13 4.74-12.53-2.46.51-8.72 13.4-5.02 12.53 2.46z" class="cls-4" data-name="Pfad 72"/>
                </g>
                <g id="Gruppe_85" data-name="Gruppe 85">
                  <path id="Pfad_73" d="M328.65 744a2.85 2.85 0 0 0-3.65 1.5c-1.5 2.72-3 5.34-4.3 8.18-.76 1.69 1.5 3.51 2.94 2.26a30.35 30.35 0 0 0 6.52-8.34c.77-1.32-.26-3.11-1.51-3.6z" class="cls-3" data-name="Pfad 73"/>
                  <path id="Pfad_74" d="M334.57 745.68c-.9 7.72-12.95 4.73-12.53-2.47.51-8.71 13.4-5.01 12.53 2.47z" class="cls-4" data-name="Pfad 74"/>
                </g>
                <path id="Pfad_75" d="M203.27 749.87a1.19 1.19 0 0 0 .17.66 1.29 1.29 0 0 0 .92.41c.69.11 1.37.21 2.06.3a1.59 1.59 0 0 0 1.34-.24 1.45 1.45 0 0 0 .35-.81l2-8.85c.06-.27-5.34-1.54-5.88-1.09-.29.24-.32 1-.39 1.37-.1.51-.19 1-.27 1.55a29.88 29.88 0 0 0-.31 3.13 28.36 28.36 0 0 0 .01 3.57z" class="cls-4" data-name="Pfad 75"/>
                <path id="Pfad_76" d="M336.82 695.92c-16.78 14.3-25.86 31.2-20.28 37.75 3.25 3.82 7.61 2.58 11.93 3.53 5.4 1.19 10.07 3.95 14.79 6.83 11.37 7 23.53 16.24 30.95 27.51 4.88 7.43-.62 11.72-8 8.56-17.28-7.43-32.6-21.19-47.9-31.94l-17-11.93-8.5-6c-2.85-2-5.76-4-8.79-6.07a114.94 114.94 0 0 0-19.86-11 66 66 0 0 0-11.48-3.62l-3-.54c-1-.15-2-.25-3.05-.36-.49-.07-1-.1-1.59-.14s-1.09-.06-1.63-.06a40.53 40.53 0 0 0-25 7.7c-7.73 5.74-14.95 16.25-15.46 26.25a.63.63 0 0 0 .53.65l6 1a.33.33 0 0 0 .37-.26c.1-1.14 2.05-4.53 2.22-4.8 7.36-11.84 23.19-17.47 36.28-12.84a45.87 45.87 0 0 1 10 5.15 109.89 109.89 0 0 1 12.48 10c2.44 2.18 4.9 4.48 7.41 6.83l7.58 7.1 15.15 14.2 30.35 28.41c1.32 1.21 2.69 2.46 4.14 3.73s3 2.55 4.58 3.83a78 78 0 0 0 11 7.37c.51.29 1.05.56 1.58.84s1.06.54 1.62.8l1.67.76 1.8.75a56.34 56.34 0 0 0 7.48 2.34 53.19 53.19 0 0 0 8 1.24 49.86 49.86 0 0 0 8.64-.14 45.63 45.63 0 0 0 9.1-2 41.62 41.62 0 0 0 9-4.27 41.14 41.14 0 0 0 7.86-6.49c.58-.61 1.15-1.23 1.7-1.87s1-1.29 1.53-2 1-1.32 1.44-2 .86-1.36 1.27-2a50 50 0 0 0 6.2-17.05 56.09 56.09 0 0 0 .24-17.06c-.21-1.42-.41-2.84-.75-4.25l-.49-2.12c-.17-.71-.4-1.41-.61-2.12l-.67-2.12-.7-1.89c-.23-.62-.47-1.26-.72-1.87l-.79-1.81c-6.82-15.29-18.81-27.22-31.39-37.8-4.47-3.76-7.5-7.91-7.11-13.74.35-5.34 4.54-10 .25-15-5.47-6.56-23.59-.28-40.37 14.03z" class="cls-5" data-name="Pfad 76"/>
                <path id="Pfad_77" fill="#6d63c6" d="M363.26 702.1a70.1 70.1 0 0 1-6.93 6.75c-2 1.72-4.1 3.35-6.22 4.92-.91.68-1.82 1.35-2.73 2a111.48 111.48 0 0 1-15 9.44l-.88.41c-4.15 1.78-12.16 3.61-9.72-3.45 1.36-3.89 4.27-7.59 7-10.79l1.16-1.33A76.23 76.23 0 0 1 358.09 690c1.34-.55 2.71-1.07 4.08-1.54 1.85-.63 4.08-1.14 5.6.09 4.12 3.3-2.24 10.96-4.51 13.55z" data-name="Pfad 77"/>
                <path id="Pfad_78" d="M383.58 721.26c-.68-.19-1.52.4-1.16 1.16 2 4.27 6.14 7.65 9 11.35a96.64 96.64 0 0 1 8.3 12.26c4.8 8.74 8 17.79 8 27.79 0 2.24 2.95 1.92 3.78.49 2.48-4.34 1.3-9.52 0-14.06a75.82 75.82 0 0 0-6.59-15.76 73.17 73.17 0 0 0-9.13-13.35c-3.23-3.64-7.32-8.55-12.2-9.88z" class="cls-3" data-name="Pfad 78"/>
                <path id="Pfad_79" d="M407.54 781.1a37.08 37.08 0 0 0-2.27 5.45c-.79 2-2.21 3.59-3 5.54-1 2.44 1.82 4 3.76 2.88 3.86-2.23 6.5-9.47 4.23-13.51-.54-.9-2.04-1.46-2.72-.36z" class="cls-3" data-name="Pfad 79"/>
              </g>
              <path id="Pfad_80" fill="#b4acfc" d="M369.75 689.12c-1.87 12.2-10.8 21.24-20.45 28.2a79.54 79.54 0 0 1-16.24 9.07c-4 1.65-8.61 3.23-12.58.69-.56-.36-.09-1.1.45-1.09a24.28 24.28 0 0 0 10.38-2.49c1.22-.54 2.41-1.1 3.58-1.67.64-.31 1.27-.63 1.9-1a79.86 79.86 0 0 0 11.31-7c2.66-2 5.47-4.14 8.15-6.54 1.18-1 2.32-2.13 3.41-3.25 4.24-4.39 7.72-9.4 9-15.08.11-.69 1.2-.58 1.09.16z" data-name="Pfad 80"/>
            </g>
            <path id="Pfad_81" fill="#e4e6fa" d="M470.12 203.64c-8.78 32-35.6 63.63-28.55 94 4.32 18.62 21 31.8 23.85 50.85 4.25 28.18-22.53 56.17-27.1 85.45-5.26 33.63 19.49 62 17.71 95.5-1.81 34.15-29.89 64.2-54.8 91.63-18.55 20.41-37.23 44.45-43.14 68.93a64 64 0 0 0-1.84 17.33c-2.67 2.4-5.49 4.57-8.14 6.54a80.88 80.88 0 0 1-11.32 7c-.62.33-1.26.65-1.9 1-1.16.56-2.36 1.13-3.57 1.67a55.72 55.72 0 0 0-2.53-12.12c-6.37-19.62-22.76-36-38.47-50.14-21.79-19.59-45.36-42.79-42.5-73.62 2.33-25 22.07-49 21.52-73.73-.5-23.35-18.74-40.12-35.66-54.86s-34.77-32.15-34.15-55.64c.74-27.88 27.34-53.1 30.95-81.15 2.43-18.92-6-36.19-16.52-50.7s-23.2-27.54-30.88-43.8-9.5-37.22 1.66-54.08c24.71-37.33 71.32-59 113.63-73.78s89.29-16.92 125.25 1.79 57.89 60.39 46.5 101.93z" data-name="Pfad 81"/>
            <g id="Gruppe_92" data-name="Gruppe 92">
              <g id="Gruppe_89" data-name="Gruppe 89">
                <g id="Gruppe_88" data-name="Gruppe 88">
                  <path id="Pfad_82" d="M284 625.12a10.77 10.77 0 0 0-2.9-2.39c-1.75-1.11-3.39.83-2.75 2.52.35.9.5 1.87.87 2.77s.83 1.73 1.23 2.6c1.29 2.84 6.19 1.17 5.24-1.87a11.58 11.58 0 0 0-1.69-3.63z" class="cls-1" data-name="Pfad 82"/>
                  <path id="Pfad_83" d="M296.81 640.49l-.11-.14-.09-.14c-.27-.39-.54-.76-.85-1.13a9.08 9.08 0 0 0-1.54-1.62c-1.47-1.09-3.3-1.5-4.56.2-.92 1.23-.61 3.32.18 4.52a8.11 8.11 0 0 0 3.09 3 3.07 3.07 0 0 0 3.88-4.67z" class="cls-1" data-name="Pfad 83"/>
                  <path id="Pfad_84" d="M310.91 657.71a14.06 14.06 0 0 0-6-5.11c-1.39-.64-2.82 1-2.53 2.3a14.53 14.53 0 0 0 4 7 3.14 3.14 0 0 0 4.37.16c1.36-1.24 1.13-2.98.16-4.35z" class="cls-1" data-name="Pfad 84"/>
                  <path id="Pfad_85" d="M311.52 639.34c-1.35-1-3.92-1.45-4.92.35a4 4 0 0 0 .32 4.41 7.14 7.14 0 0 0 1.73 2c.53.39 1.13.72 1.68 1.07a3 3 0 0 0 4.2-3.85 9.31 9.31 0 0 0-3.01-3.98z" class="cls-1" data-name="Pfad 85"/>
                  <path id="Pfad_86" d="M327.41 670.43a5.07 5.07 0 0 0-4.23-1.53 2.26 2.26 0 0 0-1.76 2.07c-.38 2.18 1.26 4.31 2.33 6.08a3.42 3.42 0 1 0 6.08-3.15 11.78 11.78 0 0 0-2.42-3.47z" class="cls-1" data-name="Pfad 86"/>
                  <path id="Pfad_87" d="M334.6 689.51a2.43 2.43 0 0 0-3 1.56 7.49 7.49 0 0 0 .06 3.33 12.35 12.35 0 0 0 1.18 3c.78 1.63 3.56 1.93 4.42.19a5.61 5.61 0 0 0 .64-4.5c-.51-1.52-1.66-3.19-3.3-3.58z" class="cls-1" data-name="Pfad 87"/>
                </g>
              </g>
              <g id="Gruppe_90" data-name="Gruppe 90">
                <path id="Pfad_88" d="M227.44 254a2.46 2.46 0 0 0-3.2-.33 2.53 2.53 0 0 0-.78 3.12 29.89 29.89 0 0 0 1.14 2.89 24 24 0 0 0 1.89 2.9c.84 1.2 2.83 1.16 3.9.39a3 3 0 0 0 1-3.8 22.88 22.88 0 0 0-3.95-5.17z" class="cls-1" data-name="Pfad 88"/>
                <path id="Pfad_89" d="M235.28 266.68a3.11 3.11 0 0 0-4.69 2.43c-.26 1.68.58 3.32 1.25 4.82a16.83 16.83 0 0 0 2.71 3.92c2.07 2.42 6.37.2 5.58-2.89a16.62 16.62 0 0 0-1.64-4.48c-.83-1.41-1.69-3.05-3.21-3.8z" class="cls-1" data-name="Pfad 89"/>
                <path id="Pfad_90" d="M246 258c-1-1.61-2.23-2.85-4.19-3.1a2.22 2.22 0 0 0-2.23 1.54c-.8 3.13 1.53 6 3.46 8.2 1.3 1.47 4.48.64 4.31-1.56A10 10 0 0 0 246 258z" class="cls-1" data-name="Pfad 90"/>
                <path id="Pfad_91" d="M250.17 275.82c-1.56 1.12-.91 3.7-.67 5.27.33 2.16.81 4.29 1.12 6.46.47 3.32 5.8 2.86 5.84-.47a18.8 18.8 0 0 0-1.5-8.31c-.76-1.66-2.69-4.46-4.79-2.95z" class="cls-1" data-name="Pfad 91"/>
                <path id="Pfad_92" d="M248.06 291.69a2.64 2.64 0 0 0-.88-.67 1.25 1.25 0 0 0-.59-.19h-.1a1.35 1.35 0 0 0-1.79.45l-.07.14c-1.77 1.76-.88 5.13.13 7.12a2.83 2.83 0 0 0 3.05 1.45 2.8 2.8 0 0 0 2.21-2.59 9.12 9.12 0 0 0-1-4.07 8.93 8.93 0 0 0-.96-1.64z" class="cls-1" data-name="Pfad 92"/>
                <path id="Pfad_93" d="M251.46 309.23c-1.3-1.15-3.84-1.09-4.3 1-.52 2.29-.18 4.67-.11 7a2.91 2.91 0 0 0 2 2.83 2.84 2.84 0 0 0 3.24-1.18 8.35 8.35 0 0 0 1.21-5.18 7.6 7.6 0 0 0-2.04-4.47z" class="cls-1" data-name="Pfad 93"/>
              </g>
              <g id="Gruppe_91" data-name="Gruppe 91">
                <path id="Pfad_94" d="M419.15 415.85c-1.59.61-2.79 2.37-3.45 4.1a10.91 10.91 0 0 0-.64 2.65 6.61 6.61 0 0 0 .62 3.25 2.9 2.9 0 0 0 2.85 1.56 3 3 0 0 0 2.57-2 23.68 23.68 0 0 0 .65-4.35c.07-.61.12-1.22.18-1.83 0-.32.12-.64.13-1s0-.41-.05-.61c-.28-.62-.33-.78-.15-.5a1.91 1.91 0 0 0-2.29-1.44 1.77 1.77 0 0 0-.42.17z" class="cls-1" data-name="Pfad 94"/>
                <path id="Pfad_95" d="M430.21 412.67a6.33 6.33 0 0 0-1.71.74 5.72 5.72 0 0 0-1.5 1.64 5.1 5.1 0 0 0-.71 1.8 4.84 4.84 0 0 0 .44 3.28 3 3 0 0 0 2.54 1.64 3.1 3.1 0 0 0 2.71-1.41 5.92 5.92 0 0 0 1.12-3.36 8.77 8.77 0 0 0 0-1.62c-.05-.34-.17-.66-.25-1a2.22 2.22 0 0 0-2.64-1.71z" class="cls-1" data-name="Pfad 95"/>
                <path id="Pfad_96" d="M428.18 424.61c-5.37-.07-7.44 10.57-1.4 10.88a3.84 3.84 0 0 0 3.82-3 12.39 12.39 0 0 0 .41-2.17c0-.1.05-.2.07-.3a7.09 7.09 0 0 0 .23-1.58c0-1.86-1.05-3.81-3.13-3.83z" class="cls-1" data-name="Pfad 96"/>
                <path id="Pfad_97" d="M418.91 434.15a3 3 0 0 0-2.93 1.26 7.54 7.54 0 0 0 0 8.3 2.78 2.78 0 0 0 2.63 1.44 2.72 2.72 0 0 0 2.39-1.87 12.56 12.56 0 0 0 .16-6.93 2.93 2.93 0 0 0-2.25-2.2z" class="cls-1" data-name="Pfad 97"/>
                <path id="Pfad_98" d="M428.57 444.12a2.22 2.22 0 0 0-2.57-.45c-1.87 1.08-2.08 3-2.2 5a15.68 15.68 0 0 0 .56 5.5 3.17 3.17 0 0 0 6.2-1.31c-.19-1.48-.45-3-.65-4.43s-.06-3.2-1.34-4.31z" class="cls-1" data-name="Pfad 98"/>
                <path id="Pfad_99" d="M431.14 461.31c-1.28-1.73-3.81-.64-4.47 1a8 8 0 0 0-.13 4.65 6.1 6.1 0 0 0 2.71 4 2.44 2.44 0 0 0 3.35-.8 3.22 3.22 0 0 0 .23-.5c.98-2.72-.03-6.09-1.69-8.35z" class="cls-1" data-name="Pfad 99"/>
              </g>
            </g>
          </g>
        </g>
        <g id="Notes">
          <g id="Gruppe_95" data-name="Gruppe 95">
            <path id="Top_Left_Note" d="M126.82 144.39a3.08 3.08 0 0 0-3.91-1.58 97 97 0 0 0-18.35 7.68 2.93 2.93 0 0 0-1.5 3.72c1.27 3.87 2.39 7.79 3.32 11.75l.33 1.42a6.5 6.5 0 0 0-5.77 2.53 6.7 6.7 0 0 0 4.79 10.6 6.46 6.46 0 0 0 6.8-6.11 6.55 6.55 0 0 0-.06-1.25 11.87 11.87 0 0 0 0-2.23 83.93 83.93 0 0 0-3.41-16.36 98.57 98.57 0 0 1 13.33-5.39 94.44 94.44 0 0 1 4.61 13.17 6 6 0 0 0-.85 0 6.2 6.2 0 0 0-5.72 5 6.6 6.6 0 0 0 3.53 6.92 7 7 0 0 0 8.26-1.76A9.18 9.18 0 0 0 134 165a54.66 54.66 0 0 0-2.93-9.93c-1.24-3.66-2.68-7.2-4.25-10.68z" class="cls-3 noteAnimation" data-name="Top Left Note"/>
            <path id="Left_Note" d="M222 301.11a9.13 9.13 0 0 0-6.13-.61c-1.6.35-3.34 1.45-5 1.5-2.13.06-2.89-1.58-3.78-3.12-1.21-2.07-4.79-.8-4.46 1.56q1.23 8.63 2.3 17.27c.27 2.11.91 4.76 1.28 7.43a8.19 8.19 0 0 0-4.36-.79 7.06 7.06 0 0 0-3.75 1.14 10 10 0 0 0-4.7 8.32c0 3.41 1.88 6.86 5.42 7.6 10.44 2.17 11.23-12.07 10.63-19-.45-5.19-.93-10.36-1.38-15.55a6.44 6.44 0 0 0 1.73.37c1.95.14 3.69-.6 5.49-1.21 1.5-.51 2.87-1.17 4.48-.46a3.7 3.7 0 0 1 2 4.74c-.91 2.56 2.91 4.46 3.82 1.88 1.56-4.1.68-8.95-3.59-11.07z" class="cls-3 noteAnimation" data-name="Left Note"/>
            <path id="On_Blue_Note" d="M458.93 457.18a7.36 7.36 0 0 0-3.17 3.78c-.48 1.22-.54 2.87-1.24 4-.92 1.45-2.35 1.2-3.77 1.1a2 2 0 0 0-1 3.66q6.27 3.07 12.47 6.25c1.51.78 3.56 1.55 5.5 2.5a6.75 6.75 0 0 0-2.49 2.54 5.61 5.61 0 0 0-.93 3 8 8 0 0 0 3.39 6.86c2.25 1.55 5.39 1.85 7.47-.16 6.15-5.94-2.93-12.88-7.76-15.58-3.64-2-7.29-4.05-10.92-6.09a5.26 5.26 0 0 0 1-1 11 11 0 0 0 1.67-4.19c.34-1.21.52-2.42 1.72-3.17a3 3 0 0 1 4.05.8c1.29 1.75 4.26.08 3-1.69-2.07-2.86-5.68-4.46-8.99-2.61z" class="cls-3 noteAnimation" data-name="On Blue Note"/>
            <path id="Under_Mic_Note" d="M476.92 348.23l-1.33-.9a5.52 5.52 0 0 0-4.29-1.16c-1.94.5-3.56 2.53-4.92 3.88A56.89 56.89 0 0 0 459 359c-1.33 2-4.45 5.92-3.68 8.55.36 1.26 2.14 2.26 3.11 3 3.29 2.6 7 4.81 10.11 7.58 1.69 1.39 3.55 2.9 5.29 4.52l-.31.1c-4.16 1.5-5.57 8.33-4.56 12.1 1.09 4.09 5.48 7.55 9.81 6 3.66-1.33 5.26-5.65 4.68-9.26-.87-5.45-6-9.58-9.8-13.08a97.78 97.78 0 0 0-10.65-8.93 102.88 102.88 0 0 1 12.75-17.91c2.82 2.16 5.76 4.16 8.51 6.43 1.7 1.39 3.55 2.89 5.29 4.51l-.3.1c-4.17 1.51-5.58 8.33-4.57 12.1 1.09 4.09 5.48 7.55 9.81 6 3.66-1.33 5.26-5.65 4.68-9.26-.87-5.45-6-9.58-9.8-13.08-2.9-2.66-5.87-5.27-9-7.68q-1.67-1.32-3.45-2.56z" class="cls-5 noteAnimation" data-name="Under Mic Note"/>
            <path id="Middle_Note" d="M353.32 579.12v-1.71a5.82 5.82 0 0 0-1.63-4.46c-1.62-1.38-4.4-1.55-6.4-1.91a61.38 61.38 0 0 0-12.33-.91c-2.55.06-7.9-.24-9.72 2-.87 1.09-.65 3.26-.72 4.58-.25 4.47.08 9-.4 13.48-.18 2.33-.35 4.87-.69 7.39l-.28-.21c-3.87-2.71-10.7.26-13.36 3.46-2.9 3.47-3.21 9.42.81 12.23 3.41 2.37 8.16 1.12 11-1.6 4.21-4.12 4.68-11.1 5.38-16.59a104.53 104.53 0 0 0 1.25-14.79 110.73 110.73 0 0 1 23.45.09c-.14 3.79-.09 7.59-.37 11.38-.17 2.34-.34 4.87-.68 7.39l-.28-.21c-3.87-2.7-10.7.26-13.36 3.46-2.9 3.47-3.22 9.43.81 12.23 3.41 2.38 8.16 1.12 11-1.6 4.21-4.11 4.68-11.1 5.38-16.58.54-4.17 1-8.36 1.17-12.56-.05-1.5-.02-3.03-.03-4.56z" class="cls-4 noteAnimation" data-name="Middle Note"/>
            <path id="Mic_Note" d="M503.74 218c-.11-.4-.22-.79-.34-1.18a4.2 4.2 0 0 0-1.95-2.82c-1.39-.67-3.35-.28-4.82-.16a44.22 44.22 0 0 0-8.78 1.6c-1.77.52-5.56 1.28-6.42 3.2-.4.93.14 2.4.33 3.33.64 3.17 1.7 6.3 2.18 9.49.31 1.66.65 3.47.87 5.29a1.57 1.57 0 0 0-.23-.09c-3.2-1.19-7.42 2.13-8.7 4.85-1.39 3-.52 7.17 2.8 8.39 2.81 1 5.9-.7 7.36-3.11 2.19-3.65 1.24-8.61.73-12.57a74 74 0 0 0-1.83-10.56 79.53 79.53 0 0 1 16.4-4.22c.6 2.67 1.33 5.32 1.83 8 .3 1.66.64 3.46.87 5.28l-.23-.09c-3.2-1.18-7.43 2.13-8.7 4.86-1.39 3-.53 7.16 2.8 8.39 2.81 1 5.9-.71 7.35-3.12 2.2-3.64 1.25-8.61.74-12.57-.39-3-.84-6-1.47-9-.24-1.04-.53-2.12-.79-3.19z" class="cls-3 noteAnimation" data-name="Mic Note"/>
          </g>
          <path id="Top_Note" d="M321 1.31a11.1 11.1 0 0 0-7.52.24c-1.88.68-3.82 2.3-5.79 2.62-2.57.41-3.75-1.46-5.08-3.18-1.79-2.32-5.94-.2-5.15 2.61q2.88 10.26 5.55 20.56c.66 2.52 1.87 5.63 2.75 8.8a10.05 10.05 0 0 0-5.41-.25 8.58 8.58 0 0 0-4.37 2 12.27 12.27 0 0 0-4.37 10.84c.53 4.13 3.38 8 7.78 8.34 13 1 11.69-16.43 9.86-24.67-1.43-6.22-2.85-12.44-4.25-18.66a7.86 7.86 0 0 0 2.16.17c2.38-.14 4.38-1.32 6.46-2.35 1.73-.85 3.29-1.87 5.35-1.27a4.52 4.52 0 0 1 3.22 5.43c-.69 3.25 4.25 4.93 4.94 1.66 1.15-5.27-.7-11.01-6.13-12.89z" class="cls-4 noteAnimation" data-name="Top Note"/>
        </g>
        <g id="Keyboard">
          <path id="Pfad_107" d="M155.22 600.24a5.7 5.7 0 0 1-.73.25l-3.8 1-4.34 1.19-6.82 1.86-2.28.63-7.9 2.15-3.6 1-2.29.62-3 .81-5.66 1.54-2.87.79-2.28.62-3.73 1-7.77 2.13-2.29.62-8.1 2.22-3.4.92-2.29.63-3.18.86-5.38 1.47-2.94.8-2.28.63-3.65 1-7.86 2.14-2.28.63-8.3 2.25-3.19.87-2.29.62-3.38.93-6.54 1.78-3.15.86-4.93 1.35a6.83 6.83 0 0 1-.81.16A6.3 6.3 0 0 1 15 632L.22 577.88a6.3 6.3 0 0 1 4.41-7.72l131.78-35.95a6.28 6.28 0 0 1 7.72 4.4l14.77 54.15a6.29 6.29 0 0 1-3.68 7.48z" class="cls-4" data-name="Pfad 107"/>
          <g id="Gruppe_97" data-name="Gruppe 97">
            <path id="Pfad_108" d="M150.7 601.52l-4.34 1.19-6.82 1.86-2.29.62-7.9 2.16-3.6 1-2.29.62-3 .81-5.67 1.55-2.86.78-2.29.63-3.72 1-7.78 2.13-2.28.62-8.11 2.21-3.4.93-2.29.62-3.17.87-5.39 1.47-2.94.8-2.28.62-3.64 1-7.87 2.15-2.28.63-8.28 2.21-3.2.87-2.28.62-3.39.92-6.54 1.79-3.15.86a3.32 3.32 0 0 1-.59-1.19l-8.52-31.19-3.27-12a3.43 3.43 0 0 1-.08-1.46L27.35 586l2.72-.75 11.07-3 2.72-.74 11.06-3 2.73-.74 11.07-3 2.72-.74 11.06-3 2.72-.75 11.07-3 2.71-.88 11.06-3 2.73-.74 11.06-3 2.72-.74 11.56-3.16a3.54 3.54 0 0 1 .67 1.29l3.2 11.59 8.61 31.56a3.27 3.27 0 0 1 .09 1.32z" class="cls-3" data-name="Pfad 108"/>
            <path id="Pfad_109" d="M139.54 604.57l-2.29.63c-.61-2-1.2-3.91-1.77-5.86-2.84-9.67-5.57-19.37-8.41-29-1-3.58-2.13-7.13-3.2-10.7l2.72-.74q4 13.67 7.9 27.39c1.37 4.79 2.78 9.57 4 14.4.36 1.31.71 2.58 1.05 3.88z" class="cls-4" data-name="Pfad 109"/>
            <path id="Pfad_110" d="M125.75 608.34l-2.29.62c-.61-2-1.2-3.91-1.77-5.87-2.58-8.8-5.08-17.61-7.66-26.41l-.75-2.6c-1-3.57-2.13-7.13-3.2-10.69l2.73-.75q1.92 6.54 3.81 13.1 2.05 7.15 4.09 14.3c1.36 4.8 2.77 9.58 4 14.4.36 1.29.71 2.56 1.04 3.9z" class="cls-4" data-name="Pfad 110"/>
            <path id="Pfad_111" d="M112 612.09l-2.28.63q-.92-2.93-1.76-5.87c-2.63-8.9-5.15-17.83-7.75-26.74-.22-.76-.45-1.51-.67-2.27q-1.58-5.36-3.2-10.7l2.66-.74c1.32 4.5 2.64 9 3.93 13.52s2.66 9.24 4 13.87c1.36 4.79 2.78 9.58 4 14.41.34 1.29.69 2.59 1.07 3.89z" class="cls-4" data-name="Pfad 111"/>
            <path id="Pfad_112" d="M98.17 615.86l-2.28.62c-.62-2-1.2-3.91-1.77-5.86-2.85-9.66-5.58-19.36-8.41-29-1-3.56-2.13-7.13-3.2-10.69l2.72-.74q4 13.68 7.91 27.38c1.35 4.8 2.77 9.58 4 14.41.34 1.28.7 2.58 1.03 3.88z" class="cls-4" data-name="Pfad 112"/>
            <path id="Pfad_113" d="M84.38 619.62l-2.29.63q-.9-2.93-1.76-5.87c-2.6-8.83-5.1-17.69-7.69-26.53-.24-.83-.48-1.66-.73-2.49q-1.57-5.34-3.19-10.7l2.72-.74q1.94 6.59 3.85 13.19 2.05 7.08 4.06 14.2c1.36 4.79 2.78 9.58 4 14.4.35 1.29.65 2.61 1.03 3.91z" class="cls-4" data-name="Pfad 113"/>
            <path id="Pfad_114" d="M70.59 623.39l-2.28.62c-.61-2-1.2-3.91-1.77-5.87-2.62-8.9-5.14-17.81-7.75-26.71-.21-.77-.44-1.54-.67-2.3-1-3.56-2.13-7.13-3.2-10.69l2.73-.75q2 6.73 3.92 13.47c1.34 4.63 2.66 9.27 4 13.92s2.77 9.58 4 14.41c.34 1.29.69 2.59 1.02 3.9z" class="cls-4" data-name="Pfad 114"/>
            <path id="Pfad_115" d="M56.8 627.14l-2.28.63q-.92-2.92-1.77-5.87c-2.84-9.65-5.57-19.35-8.41-29-1.05-3.57-2.13-7.13-3.2-10.7l2.72-.74q4 13.68 7.91 27.39c1.36 4.8 2.78 9.58 4 14.41.35 1.29.7 2.58 1.03 3.88z" class="cls-4" data-name="Pfad 115"/>
            <path id="Pfad_116" d="M43 630.91l-2.28.62c-.61-1.95-1.2-3.91-1.77-5.86-2.6-8.87-5.12-17.76-7.72-26.63-.22-.8-.46-1.6-.7-2.39Q29 591.3 27.34 586l2.73-.74q2 6.64 3.88 13.3 2 7.05 4 14.09c1.36 4.8 2.78 9.58 4 14.4.38 1.26.73 2.56 1.05 3.86z" class="cls-4" data-name="Pfad 116"/>
          </g>
          <path id="Pfad_117" d="M129.35 607.35l-3.6 1-2.29.62-3 .81c-2.32-8.44-4.84-16.82-7.32-25.2a11.73 11.73 0 0 1-.71-4.87 4.3 4.3 0 0 1 .43-1.4 6.38 6.38 0 0 1 1.14-1.63 3 3 0 0 1 2.59-.94c2.52.33 5.07 3.66 5.87 6.22 2 6.48 4.09 13 5.82 19.54a21.29 21.29 0 0 1 1.07 5.85z" class="cls-5" data-name="Pfad 117"/>
          <path id="Pfad_118" d="M114.82 611.31l-2.87.78-2.28.63-3.72 1c-2.31-8.43-4.84-16.81-7.31-25.2a11.69 11.69 0 0 1-.72-4.87 4.37 4.37 0 0 1 .43-1.4 5.23 5.23 0 0 1 1.8-2.15 3 3 0 0 1 2.8-.19c2.22.86 4.29 3.73 5 6 2 6.49 4.08 13 5.82 19.55a21.54 21.54 0 0 1 1.05 5.85z" class="cls-5" data-name="Pfad 118"/>
          <path id="Pfad_119" d="M87.78 618.69l-3.4.93-2.29.63-3.18.86c-2.31-8.44-4.84-16.81-7.32-25.2a11.85 11.85 0 0 1-.71-4.87 4.55 4.55 0 0 1 .43-1.4 6.06 6.06 0 0 1 1.33-1.8 2.93 2.93 0 0 1 2.65-.73c2.44.5 4.85 3.7 5.63 6.18 2 6.48 4.08 13 5.82 19.54a21.29 21.29 0 0 1 1.04 5.86z" class="cls-5" data-name="Pfad 119"/>
          <path id="Pfad_120" d="M73.53 622.58l-2.94.8-2.28.62-3.64 1c-2.32-8.43-4.85-16.81-7.32-25.2a11.69 11.69 0 0 1-.72-4.87 4.66 4.66 0 0 1 .44-1.4 5.33 5.33 0 0 1 1.72-2.1 3 3 0 0 1 2.78-.27c2.25.8 4.38 3.73 5.1 6 2 6.49 4.09 13 5.82 19.55a21.29 21.29 0 0 1 1.04 5.87z" class="cls-5" data-name="Pfad 120"/>
          <path id="Pfad_121" d="M46.21 630l-3.2.87-2.28.62-3.39.93C35 624 32.5 615.65 30 607.26a11.73 11.73 0 0 1-.71-4.87 4.3 4.3 0 0 1 .43-1.4 5.73 5.73 0 0 1 1.5-2 3 3 0 0 1 2.7-.52c2.36.64 4.64 3.72 5.4 6.12 2 6.48 4.08 13 5.82 19.55a21.54 21.54 0 0 1 1.07 5.86z" class="cls-5" data-name="Pfad 121"/>
          <path id="Pfad_122" d="M30.8 634.24l-3.15.86-4.92 1.35a7.73 7.73 0 0 1-.81.16c-2.31-8.42-4.83-16.78-7.3-25.15a11.71 11.71 0 0 1-.71-4.87 4.07 4.07 0 0 1 .43-1.4c1.19-2.32 2.71-2.88 4.2-2.47 2.37.65 4.64 3.72 5.4 6.12 2 6.48 4.08 13 5.82 19.54a21.29 21.29 0 0 1 1.04 5.86z" class="cls-5" data-name="Pfad 122"/>
          <path id="Pfad_123" d="M155.22 600.24a6.28 6.28 0 0 1-.73.25l-3.8 1-4.34 1.19c-2.3-8.44-4.84-16.82-7.32-25.2a11.92 11.92 0 0 1-.71-4.88 4.39 4.39 0 0 1 .44-1.4c.93-1.81 2.06-2.55 3.23-2.59 2.68-.09 5.5 3.52 6.37 6.24 2 6.49 4.08 13 5.82 19.55a21.63 21.63 0 0 1 1.04 5.84z" class="cls-5" data-name="Pfad 123"/>
        </g>
        <g id="Mic">
          <path id="Cable" d="M563.3 171.62a1.18 1.18 0 0 0-2 1.29c3.54 6.43 7.9 13.47 7.19 21.11-.56 6-4.24 11.18-8.25 15.47-8.91 9.51-20.2 16.56-28.14 27-6.65 8.78-11 20.1-8.27 31.15 2.63 10.86 12.13 18.63 22.29 22.27 13.67 4.9 28.68 2.74 42.5-.32 2.68-.6 1.9-5.12-.86-4.8-12.31 1.47-25.21 4.07-37.45.73-11-3-21.4-11.38-22.15-23.42-1.62-25.78 27.6-37 39.87-55.38 3.18-4.73 5.27-10.38 4.65-16.15-.76-7.24-4.98-13.37-9.38-18.95z" class="cls-3"/>
          <g id="Mic-2" data-name="Mic">
            <path id="Pfad_125" d="M572 184l-3.6 1.86a7.68 7.68 0 0 1-10.15-2.93l-34.53-58.46 24.1-12.47 27.65 62a7.69 7.69 0 0 1-3.47 10z" class="cls-4" data-name="Pfad 125"/>
            <path id="Pfad_126" d="M549.15 93.54a21.92 21.92 0 0 0-19.61-8.2c-15.25 1.44-27.7 16.88-21.08 31.58 5.49 12.17 20 17.9 32.15 12.3a24.19 24.19 0 0 0 13.1-15.08 23.57 23.57 0 0 0-4.56-20.6z" class="cls-2" data-name="Pfad 126"/>
            <path id="Pfad_127" d="M551.89 98.83c-6.73 5.65-13.13 11.68-21.08 15.63a43.32 43.32 0 0 1-10.81 3.72c-2 .4-4 .66-6 .88-1.78.2-3.69.2-5.24 1.18a1.25 1.25 0 0 0-.51 1.7.81.81 0 0 0 .17.24c2.6 2.7 7.62 2.2 11 1.8a43.11 43.11 0 0 0 12.83-3.89 66.86 66.86 0 0 0 22.81-17.84c1.86-2.25-.8-5.41-3.17-3.42z" class="cls-3" data-name="Pfad 127"/>
            <path id="Pfad_128" d="M551.31 136c.8.43 1.28 1.72 1.72 2.45q3.15 5.31 5.85 10.85c.27.56 0 .91-.54 1.17l-8.21 4.2a1.33 1.33 0 0 1-.54.18c-.76 0-1.34-1.68-1.64-2.22l-1.86-3.32q-1.82-3.25-3.65-6.51c-.36-.64-1.11-1.59-.5-2.31a2.48 2.48 0 0 1 .78-.54q3.49-1.83 7-3.65c.46-.23 1.08-.57 1.59-.3z" class="cls-5" data-name="Pfad 128"/>
            <path id="Pfad_129" d="M551.82 148a3.43 3.43 0 0 1-4.62-1.48l-.49-.94a3.44 3.44 0 0 1 1.48-4.63 3.44 3.44 0 0 1 4.63 1.48l.48.94a3.44 3.44 0 0 1-1.48 4.63z" class="cls-4" data-name="Pfad 129"/>
          </g>
        </g>
      </g>
    </g>
  </g>
</svg>