<svg id="_002-pencil" data-name="002-pencil" xmlns="http://www.w3.org/2000/svg" viewBox="0 0 22.761 22.76">
  <defs>
    <style>
      .cls-1 {
        fill: #4343f0;
      }
    </style>
  </defs>
  <g id="Pencil" transform="translate(0)">
    <g id="Group_19" data-name="Group 19">
      <path id="Path_20" data-name="Path 20" class="cls-1" d="M21.533,1.225a4.179,4.179,0,0,0-5.91,0l-12.57,12.5a.705.705,0,0,0-.167.261L.042,21.805a.711.711,0,0,0,.669.954.7.7,0,0,0,.208-.031L8,20.558a.71.71,0,0,0,.294-.176L21.534,7.137a4.178,4.178,0,0,0,0-5.913ZM7.178,19.321l-2.649.814a3.039,3.039,0,0,0-.723-1.182,3.844,3.844,0,0,0-.964-.684l1.212-3.333H5.69v1.422a.711.711,0,0,0,.711.711H7.656ZM17.647,9.012,8.981,17.678l.249-1.171a.712.712,0,0,0-.7-.859H7.112V14.225a.712.712,0,0,0-.711-.711H5.279L13.738,5.1l.009.008a2.759,2.759,0,1,1,3.9,3.9Zm2.881-2.881-.663.664a4.161,4.161,0,0,0-3.9-3.9l.667-.662h0a2.758,2.758,0,1,1,3.9,3.9ZM15.856,5.9,8.743,13.011a.711.711,0,1,0,1.006,1.006L16.861,6.9A.711.711,0,0,0,15.856,5.9Z" transform="translate(0.001)"/>
    </g>
  </g>
</svg>
